<svg xmlns="http://www.w3.org/2000/svg" xmlns:xlink="http://www.w3.org/1999/xlink" width="1346" height="414" viewBox="0 0 1346 414"><defs><filter id="a" x="70" y="325" width="218" height="89" filterUnits="userSpaceOnUse"><feOffset dy="3" input="SourceAlpha"/><feGaussianBlur stdDeviation="3" result="b"/><feFlood flood-opacity="0.161"/><feComposite operator="in" in2="b"/><feComposite in="SourceGraphic"/></filter><filter id="c" x="659" y="325" width="218" height="89" filterUnits="userSpaceOnUse"><feOffset dy="3" input="SourceAlpha"/><feGaussianBlur stdDeviation="3" result="d"/><feFlood flood-opacity="0.161"/><feComposite operator="in" in2="d"/><feComposite in="SourceGraphic"/></filter><filter id="e" x="1173" y="325" width="173" height="89" filterUnits="userSpaceOnUse"><feOffset dy="3" input="SourceAlpha"/><feGaussianBlur stdDeviation="3" result="f"/><feFlood flood-opacity="0.161"/><feComposite operator="in" in2="f"/><feComposite in="SourceGraphic"/></filter></defs><g transform="translate(-4486 -1079)"><g transform="translate(4486 1079)" fill="#fff"><path d="M 145 213.5 L 15 213.5 C 11.92821884155273 213.5 9.040343284606934 212.3037872314453 6.868281364440918 210.1317138671875 C 4.696218967437744 207.9596557617188 3.5 205.07177734375 3.5 202 L 3.5 15 C 3.5 11.92821884155273 4.696218967437744 9.040343284606934 6.868281364440918 6.868281364440918 C 9.040343284606934 4.696218967437744 11.92821884155273 3.5 15 3.5 L 145 3.5 C 148.07177734375 3.5 150.9596557617188 4.696218967437744 153.1317138671875 6.868281364440918 C 155.3037872314453 9.040343284606934 156.5 11.92821884155273 156.5 15 L 156.5 202 C 156.5 205.07177734375 155.3037872314453 207.9596557617188 153.1317138671875 210.1317138671875 C 150.9596557617188 212.3037872314453 148.07177734375 213.5 145 213.5 Z" stroke="none"/><path d="M 15 7 C 10.58879089355469 7 7 10.58879089355469 7 15 L 7 202 C 7 206.4112091064453 10.58879089355469 210 15 210 L 145 210 C 149.4112091064453 210 153 206.4112091064453 153 202 L 153 15 C 153 10.58879089355469 149.4112091064453 7 145 7 L 15 7 M 15 0 L 145 0 C 153.2842864990234 0 160 6.715713500976563 160 15 L 160 202 C 160 210.2842559814453 153.2842864990234 217 145 217 L 15 217 C 6.715713500976563 217 0 210.2842559814453 0 202 L 0 15 C 0 6.715713500976563 6.715713500976563 0 15 0 Z" stroke="none" fill="#efefef"/></g><path d="M-3.339,0V-84.27l-26.394,8.9V-89.994L3.975-114H21.624V0Z" transform="translate(4516 1295)" fill="#8b8580" opacity="0.1"/><path d="M11.715,14,6.891.914h3.168l3.06,9.63,3.1-9.63h3.042L14.433,14Zm13.932,0-.36-1.332A3.452,3.452,0,0,1,24.018,13.8a3.658,3.658,0,0,1-1.737.414,3.251,3.251,0,0,1-2.331-.81,2.927,2.927,0,0,1-.855-2.232,2.8,2.8,0,0,1,1.134-2.358,4.929,4.929,0,0,1,3.06-.864h1.566V7.61q0-.792-.4-1.026a2.527,2.527,0,0,0-1.242-.234,8.969,8.969,0,0,0-3.258.684V4.964a8.9,8.9,0,0,1,1.683-.5,9.672,9.672,0,0,1,1.953-.2,4.221,4.221,0,0,1,2.853.855,3.084,3.084,0,0,1,.981,2.457V14Zm-2.664-1.782a2.077,2.077,0,0,0,1.1-.306,2.483,2.483,0,0,0,.828-.828V9.536H23.631a2.5,2.5,0,0,0-1.449.36,1.179,1.179,0,0,0-.513,1.026A1.154,1.154,0,0,0,22.983,12.218ZM29.841,14V2.408l-.99-.828V.482h3.726V14Zm4.95-11.2V.7h3.024V2.8ZM35.079,14V6.4l-.99-.828v-1.1h3.726V14ZM47.1,14l-.378-1.4a3.517,3.517,0,0,1-2.988,1.62,3.606,3.606,0,0,1-2.952-1.323A5.6,5.6,0,0,1,39.7,9.248a5.729,5.729,0,0,1,1.053-3.672,3.579,3.579,0,0,1,2.961-1.314,3.408,3.408,0,0,1,2.43.954V.482h2.736V14ZM42.459,9.23a4.179,4.179,0,0,0,.486,2.214,1.53,1.53,0,0,0,1.368.774,2.111,2.111,0,0,0,1.053-.279,2.442,2.442,0,0,0,.819-.747V7.124a2.3,2.3,0,0,0-1.854-.864,1.549,1.549,0,0,0-1.386.765A4.13,4.13,0,0,0,42.459,9.23Zm4.086,1.188-.108.288A1.407,1.407,0,0,0,46.545,10.418ZM57.237,14l-.36-1.332A3.452,3.452,0,0,1,55.608,13.8a3.658,3.658,0,0,1-1.737.414,3.251,3.251,0,0,1-2.331-.81,2.927,2.927,0,0,1-.855-2.232,2.8,2.8,0,0,1,1.134-2.358,4.929,4.929,0,0,1,3.06-.864h1.566V7.61q0-.792-.4-1.026a2.527,2.527,0,0,0-1.242-.234,8.969,8.969,0,0,0-3.258.684V4.964a8.9,8.9,0,0,1,1.683-.5,9.672,9.672,0,0,1,1.953-.2,4.221,4.221,0,0,1,2.853.855,3.084,3.084,0,0,1,.981,2.457V14Zm-2.664-1.782a2.077,2.077,0,0,0,1.1-.306,2.483,2.483,0,0,0,.828-.828V9.536H55.221a2.5,2.5,0,0,0-1.449.36,1.179,1.179,0,0,0-.513,1.026A1.154,1.154,0,0,0,54.573,12.218Zm7.218-1.494V6.53H60.117V5.162l1.8-.738.81-2.682h1.8V4.478h2.034V6.53H64.527v4.05a1.246,1.246,0,0,0,.351,1,1.535,1.535,0,0,0,1.017.3q.18,0,.4-.009t.378-.027v2.178a6.98,6.98,0,0,1-.783.09q-.351.018-.783.018a3.379,3.379,0,0,1-2.475-.828A3.487,3.487,0,0,1,61.791,10.724ZM76.137,13.55a7.584,7.584,0,0,1-3.312.666,5.155,5.155,0,0,1-3.762-1.287,4.971,4.971,0,0,1-1.314-3.717,5.016,5.016,0,0,1,1.269-3.636,4.639,4.639,0,0,1,3.5-1.314,3.873,3.873,0,0,1,3.024,1.152A4.571,4.571,0,0,1,76.587,8.6V9.986h-6.12a2.4,2.4,0,0,0,.8,1.62,2.925,2.925,0,0,0,1.845.5,7.565,7.565,0,0,0,1.449-.135,9.415,9.415,0,0,0,1.575-.477ZM72.483,6.242A1.866,1.866,0,0,0,70.413,8.2h3.744a2.277,2.277,0,0,0-.486-1.44A1.492,1.492,0,0,0,72.483,6.242Zm-40.9,34.29v-2.5a11.342,11.342,0,0,0,3.978.774,3.544,3.544,0,0,0,1.782-.378,1.161,1.161,0,0,0,.648-1.044.95.95,0,0,0-.414-.783,6.149,6.149,0,0,0-1.6-.711L34.6,35.42a5.421,5.421,0,0,1-2.439-1.485A3.5,3.5,0,0,1,31.4,31.6a3.564,3.564,0,0,1,.621-2.106,3.958,3.958,0,0,1,1.755-1.359,6.94,6.94,0,0,1,2.7-.477,10.117,10.117,0,0,1,1.953.189,7.742,7.742,0,0,1,1.683.513v2.5a10.944,10.944,0,0,0-1.872-.549,9.121,9.121,0,0,0-1.764-.189q-2.232,0-2.232,1.314a.976.976,0,0,0,.423.819,6.356,6.356,0,0,0,1.593.711l1.368.468a5.661,5.661,0,0,1,2.5,1.485,3.991,3.991,0,0,1-.567,5.265,5.688,5.688,0,0,1-3.681,1.062,15.079,15.079,0,0,1-1.611-.09,13.464,13.464,0,0,1-1.548-.252A5.181,5.181,0,0,1,31.578,40.532ZM42.7,41V27.914h5.022a5.375,5.375,0,0,1,3.6,1.08,3.811,3.811,0,0,1,1.26,3.06A3.709,3.709,0,0,1,49.866,35.8L53.142,41h-3.1l-2.772-4.7-1.782-.45V41Zm2.79-6.984H46.86a4.392,4.392,0,0,0,2.277-.423,1.647,1.647,0,0,0,.639-1.485,1.647,1.647,0,0,0-.639-1.485A4.392,4.392,0,0,0,46.86,30.2H45.492Z" transform="translate(4524 1210)" fill="#e6ac58"/><path d="M8,0H138a8,8,0,0,1,8,8V80H0V8A8,8,0,0,1,8,0Z" transform="translate(4493 1086)" fill="#e6ac58"/><path d="M12.5-22.5V-25H40v2.5Zm0-10H40V-30H12.5Zm0,17.5v-2.5H40V-15Zm0,7.5V-10H40v2.5ZM3.75-30.84l4.121-4.1,1.758,1.758L3.75-27.3.371-30.684l1.758-1.758Zm0,7.5,4.121-4.1,1.758,1.758L3.75-19.8.371-23.184l1.758-1.758Zm0,7.5,4.121-4.1,1.758,1.758L3.75-12.3.371-15.684l1.758-1.758Zm0,7.5,4.121-4.1,1.758,1.758L3.75-4.8.371-8.184,2.129-9.941Z" transform="translate(4546 1146)" fill="#fff"/><g transform="translate(4680.114 1079)" fill="#fff"><path d="M 145 213.5 L 15 213.5 C 11.92821884155273 213.5 9.040343284606934 212.3037872314453 6.868281364440918 210.1317138671875 C 4.696218967437744 207.9596557617188 3.5 205.07177734375 3.5 202 L 3.5 15 C 3.5 11.92821884155273 4.696218967437744 9.040343284606934 6.868281364440918 6.868281364440918 C 9.040343284606934 4.696218967437744 11.92821884155273 3.5 15 3.5 L 145 3.5 C 148.07177734375 3.5 150.9596557617188 4.696218967437744 153.1317138671875 6.868281364440918 C 155.3037872314453 9.040343284606934 156.5 11.92821884155273 156.5 15 L 156.5 202 C 156.5 205.07177734375 155.3037872314453 207.9596557617188 153.1317138671875 210.1317138671875 C 150.9596557617188 212.3037872314453 148.07177734375 213.5 145 213.5 Z" stroke="none"/><path d="M 15 7 C 10.58879089355469 7 7 10.58879089355469 7 15 L 7 202 C 7 206.4112091064453 10.58879089355469 210 15 210 L 145 210 C 149.4112091064453 210 153 206.4112091064453 153 202 L 153 15 C 153 10.58879089355469 149.4112091064453 7 145 7 L 15 7 M 15 0 L 145 0 C 153.2842864990234 0 160 6.715713500976563 160 15 L 160 202 C 160 210.2842559814453 153.2842864990234 217 145 217 L 15 217 C 6.715713500976563 217 0 210.2842559814453 0 202 L 0 15 C 0 6.715713500976563 6.715713500976563 0 15 0 Z" stroke="none" fill="#efefef"/></g><path d="M-36.145-6.264C-39.038-10.437-39.114-16.7-39.114-16.7l28.938-31.8q8.427-9.222,13.118-15.025a51.862,51.862,0,0,0,6.6-9.858,17.848,17.848,0,0,0,1.908-7.552Q11.448-95.4-6.837-95.4q-12.879,0-29.256,8.745v-21.306a75,75,0,0,1,16.139-5.963A70.288,70.288,0,0,1-3.021-116.07q18.444,0,28.62,8.427T35.775-83.634a34.027,34.027,0,0,1-2.544,12.72,66.205,66.205,0,0,1-8.348,14.23q-5.8,7.871-15.661,18.842L-6.837-20.193h42.93V0H-27.545S-33.253-2.09-36.145-6.264Z" transform="translate(4719.114 1296)" fill="#8b8580" opacity="0.1"/><path d="M6.954,14,11.922.914H14.64l5,13.086H16.512l-.864-2.682H10.824L9.96,14ZM11.58,8.942h3.294L13.218,3.794ZM21.084,14V2.408l-.99-.828V.482H23.82V14Zm5.238,0V2.408l-.99-.828V.482h3.726V14Zm9.36.216A4.579,4.579,0,0,1,32.2,12.9,5.112,5.112,0,0,1,30.948,9.23,5.079,5.079,0,0,1,32.2,5.567a4.6,4.6,0,0,1,3.483-1.3,4.591,4.591,0,0,1,3.492,1.3A5.1,5.1,0,0,1,40.416,9.23,5.134,5.134,0,0,1,39.174,12.9,4.573,4.573,0,0,1,35.682,14.216Zm0-2.07q1.98,0,1.98-2.916,0-2.9-1.98-2.9T33.7,9.23Q33.7,12.146,35.682,12.146Zm13.734-.576v2.142a7.607,7.607,0,0,1-1.314.36,8.255,8.255,0,0,1-1.548.144q-4.734,0-4.734-5.076a4.828,4.828,0,0,1,1.305-3.573,4.853,4.853,0,0,1,3.591-1.3,7.335,7.335,0,0,1,2.43.414V6.782a4.215,4.215,0,0,0-1.944-.45,2.61,2.61,0,0,0-1.944.693,2.9,2.9,0,0,0-.684,2.115,3.526,3.526,0,0,0,.6,2.169,2.081,2.081,0,0,0,1.773.8,5.18,5.18,0,0,0,1.188-.144A10.268,10.268,0,0,0,49.416,11.57ZM57.174,14l-.36-1.332A3.452,3.452,0,0,1,55.545,13.8a3.658,3.658,0,0,1-1.737.414,3.251,3.251,0,0,1-2.331-.81,2.927,2.927,0,0,1-.855-2.232,2.8,2.8,0,0,1,1.134-2.358,4.929,4.929,0,0,1,3.06-.864h1.566V7.61q0-.792-.4-1.026a2.527,2.527,0,0,0-1.242-.234,8.969,8.969,0,0,0-3.258.684V4.964a8.9,8.9,0,0,1,1.683-.5,9.672,9.672,0,0,1,1.953-.2,4.221,4.221,0,0,1,2.853.855,3.084,3.084,0,0,1,.981,2.457V14ZM54.51,12.218a2.077,2.077,0,0,0,1.1-.306,2.483,2.483,0,0,0,.828-.828V9.536H55.158a2.5,2.5,0,0,0-1.449.36,1.179,1.179,0,0,0-.513,1.026A1.154,1.154,0,0,0,54.51,12.218Zm7.218-1.494V6.53H60.054V5.162l1.8-.738.81-2.682h1.8V4.478H66.5V6.53H64.464v4.05a1.246,1.246,0,0,0,.351,1,1.535,1.535,0,0,0,1.017.3q.18,0,.4-.009t.378-.027v2.178a6.98,6.98,0,0,1-.783.09q-.351.018-.783.018a3.379,3.379,0,0,1-2.475-.828A3.487,3.487,0,0,1,61.728,10.724ZM76.074,13.55a7.584,7.584,0,0,1-3.312.666A5.155,5.155,0,0,1,69,12.929a4.971,4.971,0,0,1-1.314-3.717,5.016,5.016,0,0,1,1.269-3.636,4.639,4.639,0,0,1,3.5-1.314A3.873,3.873,0,0,1,75.48,5.414,4.571,4.571,0,0,1,76.524,8.6V9.986H70.4a2.4,2.4,0,0,0,.8,1.62,2.925,2.925,0,0,0,1.845.5,7.565,7.565,0,0,0,1.449-.135,9.415,9.415,0,0,0,1.575-.477ZM72.42,6.242A1.866,1.866,0,0,0,70.35,8.2h3.744a2.277,2.277,0,0,0-.486-1.44A1.492,1.492,0,0,0,72.42,6.242ZM32.145,40.532v-2.5a11.343,11.343,0,0,0,3.978.774,3.544,3.544,0,0,0,1.782-.378,1.161,1.161,0,0,0,.648-1.044.95.95,0,0,0-.414-.783,6.149,6.149,0,0,0-1.6-.711l-1.368-.468a5.421,5.421,0,0,1-2.439-1.485,3.5,3.5,0,0,1-.765-2.331,3.564,3.564,0,0,1,.621-2.106,3.958,3.958,0,0,1,1.755-1.359,6.94,6.94,0,0,1,2.7-.477,10.117,10.117,0,0,1,1.953.189,7.742,7.742,0,0,1,1.683.513v2.5a10.944,10.944,0,0,0-1.872-.549,9.121,9.121,0,0,0-1.764-.189q-2.232,0-2.232,1.314a.976.976,0,0,0,.423.819,6.355,6.355,0,0,0,1.593.711l1.368.468a5.661,5.661,0,0,1,2.5,1.485,3.991,3.991,0,0,1-.567,5.265,5.688,5.688,0,0,1-3.681,1.062,15.079,15.079,0,0,1-1.611-.09,13.464,13.464,0,0,1-1.548-.252A5.18,5.18,0,0,1,32.145,40.532ZM43.269,41V27.914h8.514V30.29H46.077v2.916h5.184v2.376H46.077v3.042h5.886V41Z" transform="translate(4718.114 1210)" fill="#c74634"/><path d="M8,0H138a8,8,0,0,1,8,8V80H0V8A8,8,0,0,1,8,0Z" transform="translate(4687 1086)" fill="#c74634"/><path d="M40-7.5V-5H35V0H32.5V-5h-5V-7.5h5v-5H35v5ZM20.313-21.523a14.787,14.787,0,0,1,3.447,1.855,15.137,15.137,0,0,1,2.822,2.646,14.943,14.943,0,0,1,2.051,3.281A14.921,14.921,0,0,1,29.785-10H27.246a12.314,12.314,0,0,0-1.582-4.023A12.532,12.532,0,0,0,22.9-17.187a12.635,12.635,0,0,0-3.652-2.07A12.227,12.227,0,0,0,15-20a12.236,12.236,0,0,0-3.32.449,12.679,12.679,0,0,0-2.988,1.26,12.444,12.444,0,0,0-2.529,1.953,12.444,12.444,0,0,0-1.953,2.529,12.679,12.679,0,0,0-1.26,2.988A12.236,12.236,0,0,0,2.5-7.5H0a14.72,14.72,0,0,1,.693-4.512,15.067,15.067,0,0,1,1.963-4,15.263,15.263,0,0,1,3.057-3.262,14.482,14.482,0,0,1,3.975-2.246A10.5,10.5,0,0,1,6.24-25.156,9.649,9.649,0,0,1,5-30a9.8,9.8,0,0,1,.781-3.9A10.035,10.035,0,0,1,7.92-37.08,10.035,10.035,0,0,1,11.1-39.219,9.8,9.8,0,0,1,15-40a9.8,9.8,0,0,1,3.9.781A10.035,10.035,0,0,1,22.08-37.08,10.035,10.035,0,0,1,24.219-33.9,9.8,9.8,0,0,1,25-30a9.9,9.9,0,0,1-.322,2.52,10.021,10.021,0,0,1-.928,2.324,10.109,10.109,0,0,1-1.475,2.021A9.777,9.777,0,0,1,20.313-21.523ZM7.5-30a7.288,7.288,0,0,0,.586,2.92A7.59,7.59,0,0,0,9.7-24.7a7.59,7.59,0,0,0,2.383,1.611A7.288,7.288,0,0,0,15-22.5a7.309,7.309,0,0,0,2.91-.586A7.56,7.56,0,0,0,20.3-24.7a7.59,7.59,0,0,0,1.611-2.383A7.288,7.288,0,0,0,22.5-30a7.309,7.309,0,0,0-.586-2.91A7.56,7.56,0,0,0,20.3-35.3a7.56,7.56,0,0,0-2.393-1.611A7.309,7.309,0,0,0,15-37.5a7.288,7.288,0,0,0-2.92.586A7.59,7.59,0,0,0,9.7-35.3,7.56,7.56,0,0,0,8.086-32.91,7.309,7.309,0,0,0,7.5-30Z" transform="translate(4740 1146)" fill="#fff"/><g transform="translate(4873 1079)" fill="#fff"><path d="M 145 213.5 L 15 213.5 C 11.92821884155273 213.5 9.040343284606934 212.3037872314453 6.868281364440918 210.1317138671875 C 4.696218967437744 207.9596557617188 3.5 205.07177734375 3.5 202 L 3.5 15 C 3.5 11.92821884155273 4.696218967437744 9.040343284606934 6.868281364440918 6.868281364440918 C 9.040343284606934 4.696218967437744 11.92821884155273 3.5 15 3.5 L 145 3.5 C 148.07177734375 3.5 150.9596557617188 4.696218967437744 153.1317138671875 6.868281364440918 C 155.3037872314453 9.040343284606934 156.5 11.92821884155273 156.5 15 L 156.5 202 C 156.5 205.07177734375 155.3037872314453 207.9596557617188 153.1317138671875 210.1317138671875 C 150.9596557617188 212.3037872314453 148.07177734375 213.5 145 213.5 Z" stroke="none"/><path d="M 15 7 C 10.58879089355469 7 7 10.58879089355469 7 15 L 7 202 C 7 206.4112091064453 10.58879089355469 210 15 210 L 145 210 C 149.4112091064453 210 153 206.4112091064453 153 202 L 153 15 C 153 10.58879089355469 149.4112091064453 7 145 7 L 15 7 M 15 0 L 145 0 C 153.2842864990234 0 160 6.715713500976563 160 15 L 160 202 C 160 210.2842559814453 153.2842864990234 217 145 217 L 15 217 C 6.715713500976563 217 0 210.2842559814453 0 202 L 0 15 C 0 6.715713500976563 6.715713500976563 0 15 0 Z" stroke="none" fill="#efefef"/></g><path d="M-37.44-6.49c-.753-1.519-1.435-3.194-1.435-3.194V-26.235a60.9,60.9,0,0,0,15.1,5.486A72.653,72.653,0,0,0-7.393-18.762q11.289,0,17.331-4.611t6.042-13.2q0-8.109-4.691-12.561T-2.464-53.583a45.313,45.313,0,0,0-16.218,3.021L-26.473-63.6,2.147-93.81H-38.808V-114H33.629v16.377L6.281-69.642Q21.7-67.893,30.051-58.91t8.347,22.5q0,11.925-5.406,20.591A34.726,34.726,0,0,1,17.49-2.544Q7.394,2.067-6.439,2.067A82.262,82.262,0,0,1-23.929.238,60.959,60.959,0,0,1-35.863-3.606C-36.717-3.983-36.687-4.971-37.44-6.49Z" transform="translate(4912 1294)" fill="#8b8580" opacity="0.1"/><path d="M1.441,13.532v-2.5a11.343,11.343,0,0,0,3.978.774A3.544,3.544,0,0,0,7.2,11.426a1.161,1.161,0,0,0,.648-1.044A.95.95,0,0,0,7.435,9.6a6.149,6.149,0,0,0-1.6-.711L4.465,8.42A5.421,5.421,0,0,1,2.026,6.935,3.5,3.5,0,0,1,1.261,4.6,3.564,3.564,0,0,1,1.882,2.5,3.958,3.958,0,0,1,3.637,1.139a6.94,6.94,0,0,1,2.7-.477A10.117,10.117,0,0,1,8.29.851a7.742,7.742,0,0,1,1.683.513v2.5A10.944,10.944,0,0,0,8.1,3.317a9.121,9.121,0,0,0-1.764-.189q-2.232,0-2.232,1.314a.976.976,0,0,0,.423.819,6.355,6.355,0,0,0,1.593.711l1.368.468a5.661,5.661,0,0,1,2.5,1.485,3.549,3.549,0,0,1,.738,2.367,3.536,3.536,0,0,1-1.305,2.9,5.688,5.688,0,0,1-3.681,1.062,15.08,15.08,0,0,1-1.611-.09,13.464,13.464,0,0,1-1.548-.252A5.181,5.181,0,0,1,1.441,13.532ZM12.565,14V.914h5.022a5.375,5.375,0,0,1,3.6,1.08,3.811,3.811,0,0,1,1.26,3.06,3.885,3.885,0,0,1-.711,2.358A3.853,3.853,0,0,1,19.729,8.8L23.005,14h-3.1L17.137,9.3l-1.782-.45V14Zm2.79-6.984h1.368A4.392,4.392,0,0,0,19,6.593a1.647,1.647,0,0,0,.639-1.485A1.647,1.647,0,0,0,19,3.623,4.392,4.392,0,0,0,16.723,3.2H15.355ZM28.837,14V.914h8.514V3.29H31.645V6.206h5.184V8.582H31.645v3.042h5.886V14Zm9.612,0,3.312-4.878L38.593,4.478h3.078l1.764,2.844,1.8-2.844h2.79L44.857,9.14,48.169,14H45.091L43.2,10.886,41.221,14Zm18.378-.45a7.584,7.584,0,0,1-3.312.666,5.155,5.155,0,0,1-3.762-1.287,4.971,4.971,0,0,1-1.314-3.717,5.016,5.016,0,0,1,1.269-3.636,4.639,4.639,0,0,1,3.5-1.314,3.873,3.873,0,0,1,3.024,1.152A4.571,4.571,0,0,1,57.277,8.6V9.986h-6.12a2.4,2.4,0,0,0,.8,1.62,2.925,2.925,0,0,0,1.845.5,7.565,7.565,0,0,0,1.449-.135,9.415,9.415,0,0,0,1.575-.477ZM53.173,6.242A1.866,1.866,0,0,0,51.1,8.2h3.744a2.277,2.277,0,0,0-.486-1.44A1.492,1.492,0,0,0,53.173,6.242ZM66.4,11.57v2.142a7.607,7.607,0,0,1-1.314.36,8.255,8.255,0,0,1-1.548.144q-4.734,0-4.734-5.076a4.828,4.828,0,0,1,1.305-3.573,4.853,4.853,0,0,1,3.591-1.3,7.335,7.335,0,0,1,2.43.414V6.782a4.215,4.215,0,0,0-1.944-.45,2.61,2.61,0,0,0-1.944.693,2.9,2.9,0,0,0-.684,2.115,3.526,3.526,0,0,0,.6,2.169,2.081,2.081,0,0,0,1.773.8,5.18,5.18,0,0,0,1.188-.144A10.267,10.267,0,0,0,66.4,11.57ZM68.1,10.328V4.478h2.736v5.76q0,1.746,1.368,1.746a1.827,1.827,0,0,0,1.125-.387,2.556,2.556,0,0,0,.8-1.053V4.478h2.736V14H75.079L74.7,12.542a4.061,4.061,0,0,1-3.33,1.674,3,3,0,0,1-2.43-1.008A4.362,4.362,0,0,1,68.1,10.328Zm11.628.4V6.53H78.049V5.162l1.8-.738.81-2.682h1.8V4.478h2.034V6.53H82.459v4.05a1.246,1.246,0,0,0,.351,1,1.535,1.535,0,0,0,1.017.3q.18,0,.4-.009t.378-.027v2.178a6.98,6.98,0,0,1-.783.09q-.351.018-.783.018A3.379,3.379,0,0,1,80.56,13.3,3.487,3.487,0,0,1,79.723,10.724ZM86.185,2.8V.7h3.024V2.8ZM86.473,14V6.4l-.99-.828v-1.1h3.726V14Zm9.36.216A4.579,4.579,0,0,1,92.35,12.9,5.112,5.112,0,0,1,91.1,9.23,5.079,5.079,0,0,1,92.35,5.567a5.313,5.313,0,0,1,6.975,0,5.1,5.1,0,0,1,1.242,3.663A5.134,5.134,0,0,1,99.325,12.9,4.573,4.573,0,0,1,95.833,14.216Zm0-2.07q1.98,0,1.98-2.916,0-2.9-1.98-2.9t-1.98,2.9Q93.853,12.146,95.833,12.146ZM102.457,14V4.478h1.782l.378,1.458a4.129,4.129,0,0,1,3.4-1.674,3.128,3.128,0,0,1,2.5,1,4.293,4.293,0,0,1,.864,2.889V14h-2.736V8.24q0-1.746-1.458-1.746a1.987,1.987,0,0,0-1.179.378,2.416,2.416,0,0,0-.819,1.062V14Zm14.526,3.618L124.4.482h2.934L119.9,17.618ZM34.444,41V27.914h5.022a5.375,5.375,0,0,1,3.6,1.08,3.811,3.811,0,0,1,1.26,3.06A3.709,3.709,0,0,1,41.608,35.8L44.884,41h-3.1l-2.772-4.7-1.782-.45V41Zm2.79-6.984H38.6a4.392,4.392,0,0,0,2.277-.423,1.647,1.647,0,0,0,.639-1.485,1.647,1.647,0,0,0-.639-1.485A4.392,4.392,0,0,0,38.6,30.2H37.234ZM53.848,40.55a7.584,7.584,0,0,1-3.312.666,5.155,5.155,0,0,1-3.762-1.287,4.971,4.971,0,0,1-1.314-3.717,5.016,5.016,0,0,1,1.269-3.636,4.639,4.639,0,0,1,3.5-1.314,3.873,3.873,0,0,1,3.024,1.152A4.571,4.571,0,0,1,54.3,35.6v1.386h-6.12a2.4,2.4,0,0,0,.8,1.62,2.925,2.925,0,0,0,1.845.5,7.565,7.565,0,0,0,1.449-.135,9.415,9.415,0,0,0,1.575-.477Zm-3.654-7.308a1.866,1.866,0,0,0-2.07,1.962h3.744a2.277,2.277,0,0,0-.486-1.44A1.492,1.492,0,0,0,50.194,33.242ZM58.87,41l-3.726-9.522h2.9l2,6.084,2-6.084h2.79L61.1,41Zm7.542-11.2V27.7h3.024V29.8ZM66.7,41V33.4l-.99-.828v-1.1h3.726V41Zm13.014-.45a7.584,7.584,0,0,1-3.312.666,5.155,5.155,0,0,1-3.762-1.287,4.971,4.971,0,0,1-1.314-3.717,5.016,5.016,0,0,1,1.269-3.636,4.639,4.639,0,0,1,3.5-1.314,3.873,3.873,0,0,1,3.024,1.152A4.571,4.571,0,0,1,80.164,35.6v1.386h-6.12a2.4,2.4,0,0,0,.8,1.62,2.925,2.925,0,0,0,1.845.5,7.565,7.565,0,0,0,1.449-.135,9.415,9.415,0,0,0,1.575-.477ZM76.06,33.242A1.866,1.866,0,0,0,73.99,35.2h3.744a2.277,2.277,0,0,0-.486-1.44A1.492,1.492,0,0,0,76.06,33.242ZM83.728,41l-2.682-9.522h2.736l1.386,5.472,1.548-5.166H88.93L90.5,37.112l1.44-5.634H94.6L91.918,41h-2.16l-1.98-6.174L85.888,41Z" transform="translate(4888 1207)" fill="#41817e"/><path d="M8,0H138a8,8,0,0,1,8,8V80H0V8A8,8,0,0,1,8,0Z" transform="translate(4879 1086)" fill="#41817e"/><path d="M17.5-22.5V-25H15v-2.5h2.5V-30H20v2.5h2.5V-25H20v2.5Zm2.637,15a10.3,10.3,0,0,0,.2,1.27A10.184,10.184,0,0,0,20.684-5H12.5a2.423,2.423,0,0,1-.977-.2,2.541,2.541,0,0,1-.791-.537,2.541,2.541,0,0,1-.537-.791A2.423,2.423,0,0,1,10-7.5v-25a2.423,2.423,0,0,1,.2-.977,2.541,2.541,0,0,1,.537-.791,2.541,2.541,0,0,1,.791-.537A2.423,2.423,0,0,1,12.5-35H29.375L35-29.375v10.059a10.184,10.184,0,0,0-1.23-.352,10.3,10.3,0,0,0-1.27-.2v-8.262L28.125-32.5H12.5v25ZM40-17.5V-10H32.5v-2.5h2.969a5.283,5.283,0,0,0-2.109-1.855A6.113,6.113,0,0,0,30.625-15a6.134,6.134,0,0,0-2.07.361,5.922,5.922,0,0,0-1.807,1.016,5.046,5.046,0,0,0-1.27,1.572A4.369,4.369,0,0,0,25-10H22.5a6.691,6.691,0,0,1,.684-3.018,7.736,7.736,0,0,1,1.807-2.373,8.308,8.308,0,0,1,2.588-1.553,8.506,8.506,0,0,1,3.047-.557,8.5,8.5,0,0,1,3.887.918A7.861,7.861,0,0,1,37.5-13.945V-17.5Zm-8.125,15a6.052,6.052,0,0,0,2.061-.361,5.949,5.949,0,0,0,1.8-1.016,5.17,5.17,0,0,0,1.279-1.572A4.3,4.3,0,0,0,37.5-7.5H40a6.691,6.691,0,0,1-.684,3.018A7.736,7.736,0,0,1,37.51-2.109,8.308,8.308,0,0,1,34.922-.557,8.506,8.506,0,0,1,31.875,0a8.5,8.5,0,0,1-3.887-.918A7.861,7.861,0,0,1,25-3.555V0H22.5V-7.5H30V-5H27.031a5.283,5.283,0,0,0,2.109,1.855A6.113,6.113,0,0,0,31.875-2.5Z" transform="translate(4932 1146)" fill="#fff"/><g transform="translate(5071 1079)" fill="#fff"><path d="M 145 213.5 L 15 213.5 C 11.92821884155273 213.5 9.040343284606934 212.3037872314453 6.868281364440918 210.1317138671875 C 4.696218967437744 207.9596557617188 3.5 205.07177734375 3.5 202 L 3.5 15 C 3.5 11.92821884155273 4.696218967437744 9.040343284606934 6.868281364440918 6.868281364440918 C 9.040343284606934 4.696218967437744 11.92821884155273 3.5 15 3.5 L 145 3.5 C 148.07177734375 3.5 150.9596557617188 4.696218967437744 153.1317138671875 6.868281364440918 C 155.3037872314453 9.040343284606934 156.5 11.92821884155273 156.5 15 L 156.5 202 C 156.5 205.07177734375 155.3037872314453 207.9596557617188 153.1317138671875 210.1317138671875 C 150.9596557617188 212.3037872314453 148.07177734375 213.5 145 213.5 Z" stroke="none"/><path d="M 15 7 C 10.58879089355469 7 7 10.58879089355469 7 15 L 7 202 C 7 206.4112091064453 10.58879089355469 210 15 210 L 145 210 C 149.4112091064453 210 153 206.4112091064453 153 202 L 153 15 C 153 10.58879089355469 149.4112091064453 7 145 7 L 15 7 M 15 0 L 145 0 C 153.2842864990234 0 160 6.715713500976563 160 15 L 160 202 C 160 210.2842559814453 153.2842864990234 217 145 217 L 15 217 C 6.715713500976563 217 0 210.2842559814453 0 202 L 0 15 C 0 6.715713500976563 6.715713500976563 0 15 0 Z" stroke="none" fill="#efefef"/></g><path d="M-46.03-21.624V-40.7L8.666-114h22.1v71.709h15.9v20.67h-15.9V0H7.235V-21.624Zm53.9-26.712V-81.09l-28.3,38.8H7.394Z" transform="translate(5117 1296)" fill="#8b8580" opacity="0.1"/><path d="M22.965,14V3.29H19.1V.914H29.643V3.29h-3.87V14Zm10.116,0H30.345V4.478h1.782l.378,1.4a3.383,3.383,0,0,1,1.17-1.071,3.3,3.3,0,0,1,1.62-.387,3.763,3.763,0,0,1,.684.054V6.944H35.4a2.414,2.414,0,0,0-1.53.477,2.164,2.164,0,0,0-.792,1.269Zm10.26,0-.36-1.332A3.452,3.452,0,0,1,41.712,13.8a3.658,3.658,0,0,1-1.737.414,3.251,3.251,0,0,1-2.331-.81,2.927,2.927,0,0,1-.855-2.232,2.8,2.8,0,0,1,1.134-2.358,4.929,4.929,0,0,1,3.06-.864h1.566V7.61q0-.792-.4-1.026a2.527,2.527,0,0,0-1.242-.234,8.969,8.969,0,0,0-3.258.684V4.964a8.9,8.9,0,0,1,1.683-.5,9.672,9.672,0,0,1,1.953-.2,4.221,4.221,0,0,1,2.853.855,3.084,3.084,0,0,1,.981,2.457V14Zm-2.664-1.782a2.077,2.077,0,0,0,1.1-.306,2.483,2.483,0,0,0,.828-.828V9.536H41.325a2.5,2.5,0,0,0-1.449.36,1.179,1.179,0,0,0-.513,1.026A1.154,1.154,0,0,0,40.677,12.218Zm13.842-.648v2.142a7.607,7.607,0,0,1-1.314.36,8.255,8.255,0,0,1-1.548.144q-4.734,0-4.734-5.076a4.828,4.828,0,0,1,1.305-3.573,4.853,4.853,0,0,1,3.591-1.3,7.335,7.335,0,0,1,2.43.414V6.782a4.215,4.215,0,0,0-1.944-.45,2.61,2.61,0,0,0-1.944.693,2.9,2.9,0,0,0-.684,2.115,3.526,3.526,0,0,0,.6,2.169,2.081,2.081,0,0,0,1.773.8,5.18,5.18,0,0,0,1.188-.144A10.268,10.268,0,0,0,54.519,11.57ZM56.3,14V.482h2.736V8.24l3.258-3.762h2.988L61.863,8.42,65.445,14h-3.06l-2.61-4.176h-.738V14ZM18.528,41V27.914h8.514V30.29H21.336v2.916H26.52v2.376H21.336v3.042h5.886V41ZM29.9,41V33.53H28.23V32.162l1.674-.684v-.54q0-3.6,3.528-3.6.306,0,.5.018t.423.054v2.124a1.924,1.924,0,0,0-.378-.036,1.321,1.321,0,0,0-1.026.342,1.622,1.622,0,0,0-.306,1.1v.54h3.276v-.54q0-3.6,3.528-3.6.378,0,.639.018a3.17,3.17,0,0,1,.5.072v2.106q-.108-.018-.225-.027t-.261-.009a1.555,1.555,0,0,0-1.107.324,1.464,1.464,0,0,0-.333,1.08v.576h2V33.53h-2V41H35.916V33.53H32.64V41Zm16.38.216A4.579,4.579,0,0,1,42.8,39.9,5.112,5.112,0,0,1,41.55,36.23,5.079,5.079,0,0,1,42.8,32.567a4.6,4.6,0,0,1,3.483-1.305,4.591,4.591,0,0,1,3.492,1.305,5.1,5.1,0,0,1,1.242,3.663A5.134,5.134,0,0,1,49.776,39.9,4.573,4.573,0,0,1,46.284,41.216Zm0-2.07q1.98,0,1.98-2.916,0-2.9-1.98-2.9t-1.98,2.9Q44.3,39.146,46.284,39.146ZM55.644,41H52.908V31.478H54.69l.378,1.4a3.383,3.383,0,0,1,1.17-1.071,3.3,3.3,0,0,1,1.62-.387,3.763,3.763,0,0,1,.684.054v2.466h-.576a2.414,2.414,0,0,0-1.53.477,2.164,2.164,0,0,0-.792,1.269Zm5.67-3.276V33.53H59.64V32.162l1.8-.738.81-2.682h1.8v2.736h2.034V33.53H64.05v4.05a1.246,1.246,0,0,0,.351,1,1.535,1.535,0,0,0,1.017.3q.18,0,.4-.009t.378-.027v2.178a6.981,6.981,0,0,1-.783.09q-.351.018-.783.018a3.379,3.379,0,0,1-2.475-.828A3.487,3.487,0,0,1,61.314,37.724Z" transform="translate(5109 1210)" fill="#ae562c"/><path d="M8,0H138a8,8,0,0,1,8,8V80H0V8A8,8,0,0,1,8,0Z" transform="translate(5078 1086)" fill="#ae562c"/><path d="M5.881-34.336a1.238,1.238,0,0,0-.449.449,1.2,1.2,0,0,0-.176.625,1.062,1.062,0,0,0,.039.293,2.293,2.293,0,0,0,.1.273L19.2-5.059a1.117,1.117,0,0,0,.547.547l3.379,1.7a2.972,2.972,0,0,0,1.348.313h.186a.947.947,0,0,0,.186-.02l.918,1.836a1.208,1.208,0,0,0,.459.5A1.23,1.23,0,0,0,26.876,0a1.2,1.2,0,0,0,.879-.371,1.2,1.2,0,0,0,.371-.879,1.688,1.688,0,0,0-.137-.586q-.137-.352-.322-.732t-.381-.713a6.173,6.173,0,0,1-.293-.547,3.058,3.058,0,0,0,.508-1.7V-8.75a1.177,1.177,0,0,0-.136-.566l-11.249-22.5,1.27-.625,4.629,9.258a1.208,1.208,0,0,0,.459.5,1.229,1.229,0,0,0,.654.186A1.2,1.2,0,0,0,24-22.871a1.2,1.2,0,0,0,.371-.879,1.431,1.431,0,0,0-.137-.566l-4.668-9.336a2.549,2.549,0,0,0-.84-.986A2.124,2.124,0,0,0,17.5-35a2.7,2.7,0,0,0-1.3.332q-.615.332-1.2.625l-1.387-2.773a1.124,1.124,0,0,0-.459-.508A1.281,1.281,0,0,0,12.5-37.5a1.055,1.055,0,0,0-.429.078q-.234-.469-.459-.928a4.949,4.949,0,0,0-.508-.83,2.18,2.18,0,0,0-.693-.6A2.138,2.138,0,0,0,9.377-40a2.559,2.559,0,0,0-1.191.293l-1.836.918a2.583,2.583,0,0,0-.986.83A2.112,2.112,0,0,0,5-36.719a2.627,2.627,0,0,0,.3,1.24Q5.608-34.9,5.881-34.336Zm3.945-1.973-1.7.84L7.56-36.6l1.7-.84ZM8.185-32.7l3.75-1.875L25-8.457v2.93a.507.507,0,0,1-.156.371A.507.507,0,0,1,24.474-5a1.161,1.161,0,0,1-.322-.1q-.244-.1-.566-.254T22.9-5.693q-.361-.186-.693-.361l-.586-.312q-.254-.137-.371-.2ZM5-25a4.865,4.865,0,0,0-1.943.391,5.05,5.05,0,0,0-1.592,1.074A5.05,5.05,0,0,0,.393-21.943,4.866,4.866,0,0,0,0-20a4.866,4.866,0,0,0,.391,1.943,5.05,5.05,0,0,0,1.074,1.592,5.05,5.05,0,0,0,1.592,1.074A4.865,4.865,0,0,0,5-15h5.625l-1.25-2.5H5a2.423,2.423,0,0,1-.977-.2,2.541,2.541,0,0,1-.791-.537,2.541,2.541,0,0,1-.537-.791A2.423,2.423,0,0,1,2.5-20a2.423,2.423,0,0,1,.2-.977,2.541,2.541,0,0,1,.537-.791,2.541,2.541,0,0,1,.791-.537A2.423,2.423,0,0,1,5-22.5a1.2,1.2,0,0,0,.879-.371,1.2,1.2,0,0,0,.371-.879,1.2,1.2,0,0,0-.371-.879A1.2,1.2,0,0,0,5-25ZM37.5-8.75a6.124,6.124,0,0,1-.488,2.432,6.27,6.27,0,0,1-1.338,1.992,6.272,6.272,0,0,1-1.992,1.338,6.122,6.122,0,0,1-2.431.488h-.859a5.9,5.9,0,0,1,.166.605,3.008,3.008,0,0,1,.068.645,3.008,3.008,0,0,1-.068.645A5.9,5.9,0,0,1,30.391,0h.859a8.44,8.44,0,0,0,3.408-.693,8.912,8.912,0,0,0,2.773-1.875,8.915,8.915,0,0,0,1.875-2.773A8.441,8.441,0,0,0,40-8.75a8.441,8.441,0,0,0-.693-3.408,8.915,8.915,0,0,0-1.875-2.773,8.912,8.912,0,0,0-2.773-1.875,8.44,8.44,0,0,0-3.408-.693H26.876l1.25,2.5h3.125a6.018,6.018,0,0,1,2.431.5,6.409,6.409,0,0,1,1.992,1.348,6.3,6.3,0,0,1,1.338,1.982A6.054,6.054,0,0,1,37.5-8.75Z" transform="translate(5131 1146)" fill="#fff"/><g transform="translate(5265 1079)" fill="#fff"><path d="M 145 213.5 L 15 213.5 C 11.92821884155273 213.5 9.040343284606934 212.3037872314453 6.868281364440918 210.1317138671875 C 4.696218967437744 207.9596557617188 3.5 205.07177734375 3.5 202 L 3.5 15 C 3.5 11.92821884155273 4.696218967437744 9.040343284606934 6.868281364440918 6.868281364440918 C 9.040343284606934 4.696218967437744 11.92821884155273 3.5 15 3.5 L 145 3.5 C 148.07177734375 3.5 150.9596557617188 4.696218967437744 153.1317138671875 6.868281364440918 C 155.3037872314453 9.040343284606934 156.5 11.92821884155273 156.5 15 L 156.5 202 C 156.5 205.07177734375 155.3037872314453 207.9596557617188 153.1317138671875 210.1317138671875 C 150.9596557617188 212.3037872314453 148.07177734375 213.5 145 213.5 Z" stroke="none"/><path d="M 15 7 C 10.58879089355469 7 7 10.58879089355469 7 15 L 7 202 C 7 206.4112091064453 10.58879089355469 210 15 210 L 145 210 C 149.4112091064453 210 153 206.4112091064453 153 202 L 153 15 C 153 10.58879089355469 149.4112091064453 7 145 7 L 15 7 M 15 0 L 145 0 C 153.2842864990234 0 160 6.715713500976563 160 15 L 160 202 C 160 210.2842559814453 153.2842864990234 217 145 217 L 15 217 C 6.715713500976563 217 0 210.2842559814453 0 202 L 0 15 C 0 6.715713500976563 6.715713500976563 0 15 0 Z" stroke="none" fill="#efefef"/></g><path d="M-35.223-6.85l-1.983-4.956V-26.235A69.8,69.8,0,0,0-21.544-20.75,74.963,74.963,0,0,0-4.77-18.762q10.176,0,16.059-4.77T17.172-36.57q0-7.95-4.849-12.4T-1.431-53.424a52.171,52.171,0,0,0-21.147,4.77L-36.57-59.625-29.892-114H32.913V-93.81h-45l-2.862,24.8A49.349,49.349,0,0,1,1.59-71.868q17.649,0,27.825,9.461t10.176,26a38.372,38.372,0,0,1-5.247,20.273A35.2,35.2,0,0,1,19.478-2.7q-9.619,4.77-22.5,4.77A90.494,90.494,0,0,1-21.862.159,68.429,68.429,0,0,1-32.849-3.09C-34.213-3.625-35.223-6.85-35.223-6.85Z" transform="translate(5302.206 1294)" fill="#8b8580" opacity="0.1"/><path d="M16.08,11.138v2.34a8.914,8.914,0,0,1-1.629.549,8.662,8.662,0,0,1-2.043.225,6.105,6.105,0,0,1-4.77-1.791A7.434,7.434,0,0,1,6.018,7.3,7.459,7.459,0,0,1,6.81,3.749,5.509,5.509,0,0,1,9.06,1.463a7.111,7.111,0,0,1,3.474-.8A7.421,7.421,0,0,1,14.3.86a6.781,6.781,0,0,1,1.422.5V3.74a11.318,11.318,0,0,0-1.647-.5,6.587,6.587,0,0,0-1.341-.144,3.632,3.632,0,0,0-2.844,1.1A4.491,4.491,0,0,0,8.9,7.3a5.146,5.146,0,0,0,.972,3.357,3.5,3.5,0,0,0,2.862,1.179,7.2,7.2,0,0,0,1.539-.171A15.664,15.664,0,0,0,16.08,11.138ZM18.132,14V2.408l-.99-.828V.482h3.726V14Zm9.36.216A4.579,4.579,0,0,1,24.009,12.9,5.112,5.112,0,0,1,22.758,9.23a5.079,5.079,0,0,1,1.251-3.663,4.6,4.6,0,0,1,3.483-1.3,4.591,4.591,0,0,1,3.492,1.3A5.1,5.1,0,0,1,32.226,9.23,5.134,5.134,0,0,1,30.984,12.9,4.573,4.573,0,0,1,27.492,14.216Zm0-2.07q1.98,0,1.98-2.916,0-2.9-1.98-2.9t-1.98,2.9Q25.512,12.146,27.492,12.146Zm6.228,1.44v-2.16a11.238,11.238,0,0,0,1.674.495,7.877,7.877,0,0,0,1.566.153q1.548,0,1.548-.792a.588.588,0,0,0-.3-.5,3.771,3.771,0,0,0-.981-.4L35.9,10A4.037,4.037,0,0,1,34.08,9,2.364,2.364,0,0,1,33.468,7.3a2.636,2.636,0,0,1,1.08-2.232,4.85,4.85,0,0,1,2.97-.81,9.546,9.546,0,0,1,1.638.144,6.523,6.523,0,0,1,1.422.4V6.926a8.438,8.438,0,0,0-3.006-.558q-1.44,0-1.44.738a.554.554,0,0,0,.288.45,3.6,3.6,0,0,0,.954.4l1.332.378a4.087,4.087,0,0,1,1.917,1.008,2.586,2.586,0,0,1,.549,1.782,2.691,2.691,0,0,1-1.062,2.313,5.17,5.17,0,0,1-3.1.783,10.006,10.006,0,0,1-1.836-.171A5.16,5.16,0,0,1,33.72,13.586Zm17.01-.036a7.584,7.584,0,0,1-3.312.666,5.155,5.155,0,0,1-3.762-1.287,4.971,4.971,0,0,1-1.314-3.717,5.016,5.016,0,0,1,1.269-3.636,4.639,4.639,0,0,1,3.5-1.314,3.873,3.873,0,0,1,3.024,1.152A4.571,4.571,0,0,1,51.18,8.6V9.986H45.06a2.4,2.4,0,0,0,.8,1.62,2.925,2.925,0,0,0,1.845.5,7.565,7.565,0,0,0,1.449-.135A9.415,9.415,0,0,0,50.73,11.5ZM47.076,6.242A1.866,1.866,0,0,0,45.006,8.2H48.75a2.277,2.277,0,0,0-.486-1.44A1.492,1.492,0,0,0,47.076,6.242ZM57.1,13.532v-2.5a11.343,11.343,0,0,0,3.978.774,3.544,3.544,0,0,0,1.782-.378,1.161,1.161,0,0,0,.648-1.044A.95.95,0,0,0,63.1,9.6a6.149,6.149,0,0,0-1.6-.711L60.126,8.42a5.421,5.421,0,0,1-2.439-1.485A3.5,3.5,0,0,1,56.922,4.6,3.564,3.564,0,0,1,57.543,2.5,3.958,3.958,0,0,1,59.3,1.139,6.94,6.94,0,0,1,62,.662a10.117,10.117,0,0,1,1.953.189,7.742,7.742,0,0,1,1.683.513v2.5a10.944,10.944,0,0,0-1.872-.549A9.121,9.121,0,0,0,62,3.128q-2.232,0-2.232,1.314a.976.976,0,0,0,.423.819,6.355,6.355,0,0,0,1.593.711l1.368.468a5.661,5.661,0,0,1,2.5,1.485,3.549,3.549,0,0,1,.738,2.367,3.536,3.536,0,0,1-1.305,2.9A5.688,5.688,0,0,1,61.4,14.252a15.08,15.08,0,0,1-1.611-.09,13.464,13.464,0,0,1-1.548-.252A5.181,5.181,0,0,1,57.1,13.532ZM68.226,14V.914h5.022a5.375,5.375,0,0,1,3.6,1.08,3.811,3.811,0,0,1,1.26,3.06A3.884,3.884,0,0,1,77.4,7.412,3.853,3.853,0,0,1,75.39,8.8L78.666,14h-3.1L72.8,9.3l-1.782-.45V14Zm2.79-6.984h1.368a4.392,4.392,0,0,0,2.277-.423A1.647,1.647,0,0,0,75.3,5.108a1.647,1.647,0,0,0-.639-1.485A4.392,4.392,0,0,0,72.384,3.2H71.016Z" transform="translate(5303.206 1223)" fill="#8b42e9"/><path d="M8,0H138a8,8,0,0,1,8,8V80H0V8A8,8,0,0,1,8,0Z" transform="translate(5272.206 1086)" fill="#8b42e9"/><path d="M37.5-40a2.423,2.423,0,0,1,.977.2,2.541,2.541,0,0,1,.791.537,2.541,2.541,0,0,1,.537.791,2.423,2.423,0,0,1,.2.977V-15a2.423,2.423,0,0,1-.2.977,2.541,2.541,0,0,1-.537.791,2.541,2.541,0,0,1-.791.537,2.423,2.423,0,0,1-.977.2h-5v1.25a10.884,10.884,0,0,1-.889,4.375A11.423,11.423,0,0,1,29.2-3.3,11.423,11.423,0,0,1,25.625-.889,10.884,10.884,0,0,1,21.25,0a10.884,10.884,0,0,1-4.375-.889A11.423,11.423,0,0,1,13.3-3.3a11.423,11.423,0,0,1-2.412-3.574A10.884,10.884,0,0,1,10-11.25V-12.5H2.5a2.423,2.423,0,0,1-.977-.2,2.541,2.541,0,0,1-.791-.537A2.541,2.541,0,0,1,.2-14.023,2.423,2.423,0,0,1,0-15V-37.5a2.423,2.423,0,0,1,.2-.977,2.541,2.541,0,0,1,.537-.791,2.541,2.541,0,0,1,.791-.537A2.423,2.423,0,0,1,2.5-40ZM30-15.684a.727.727,0,0,0-.156-.469.715.715,0,0,0-.41-.254L22.5-18.145q0,.371.01.83a3.64,3.64,0,0,1-.078.859,1.335,1.335,0,0,1-.361.674,1.114,1.114,0,0,1-.82.273,1.2,1.2,0,0,1-.879-.371A1.2,1.2,0,0,1,20-16.758V-26.25a1.208,1.208,0,0,0-.361-.889,1.208,1.208,0,0,0-.889-.361,1.2,1.2,0,0,0-.879.371,1.2,1.2,0,0,0-.371.879V-12.5a1.2,1.2,0,0,1-.371.879,1.2,1.2,0,0,1-.879.371,1.2,1.2,0,0,1-.879-.371A1.2,1.2,0,0,1,15-12.5v-2.988a2.839,2.839,0,0,0-.986.293,2.78,2.78,0,0,0-.791.6,2.783,2.783,0,0,0-.527.84,2.636,2.636,0,0,0-.2,1.006v1.5a8.441,8.441,0,0,0,.693,3.408,8.914,8.914,0,0,0,1.875,2.773,8.914,8.914,0,0,0,2.773,1.875A8.441,8.441,0,0,0,21.25-2.5a8.441,8.441,0,0,0,3.408-.693,8.914,8.914,0,0,0,2.773-1.875,8.914,8.914,0,0,0,1.875-2.773A8.441,8.441,0,0,0,30-11.25ZM22.5-21.27a6.189,6.189,0,0,0,1.836-2.2A6.106,6.106,0,0,0,25-26.25a5.95,5.95,0,0,0-.5-2.422,6.441,6.441,0,0,0-1.348-1.982A6.441,6.441,0,0,0,21.172-32a5.95,5.95,0,0,0-2.422-.5,6.019,6.019,0,0,0-2.432.5,6.409,6.409,0,0,0-1.992,1.348,6.3,6.3,0,0,0-1.338,1.982A6.053,6.053,0,0,0,12.5-26.25a6.106,6.106,0,0,0,.664,2.783A6.189,6.189,0,0,0,15-21.27v-4.98a3.53,3.53,0,0,1,.3-1.445,3.9,3.9,0,0,1,.811-1.191A3.9,3.9,0,0,1,17.3-29.7,3.53,3.53,0,0,1,18.75-30a3.679,3.679,0,0,1,1.465.293,3.762,3.762,0,0,1,1.191.8,3.762,3.762,0,0,1,.8,1.191A3.679,3.679,0,0,1,22.5-26.25Zm15-16.23H2.5V-15h8.008a5.069,5.069,0,0,1,1.826-2.119A5.271,5.271,0,0,1,15-17.988v-.41a8.218,8.218,0,0,1-2.07-1.348,8.85,8.85,0,0,1-1.572-1.846A8.687,8.687,0,0,1,10.352-23.8,8.55,8.55,0,0,1,10-26.25a8.441,8.441,0,0,1,.693-3.408,8.914,8.914,0,0,1,1.875-2.773,8.914,8.914,0,0,1,2.773-1.875A8.441,8.441,0,0,1,18.75-35a8.441,8.441,0,0,1,3.408.693,8.914,8.914,0,0,1,2.773,1.875,8.914,8.914,0,0,1,1.875,2.773A8.441,8.441,0,0,1,27.5-26.25a8.493,8.493,0,0,1-.664,3.32,8.714,8.714,0,0,1-1.895,2.813q1.289.332,2.549.635t2.549.635a3.122,3.122,0,0,1,1,.439,3.264,3.264,0,0,1,.771.723,3.47,3.47,0,0,1,.508.928,3.106,3.106,0,0,1,.186,1.074V-15h5Z" transform="translate(5325 1146)" fill="#fff"/><g transform="translate(5464 1079)" fill="#fff"><path d="M 145 213.5 L 15 213.5 C 11.92821884155273 213.5 9.040343284606934 212.3037872314453 6.868281364440918 210.1317138671875 C 4.696218967437744 207.9596557617188 3.5 205.07177734375 3.5 202 L 3.5 15 C 3.5 11.92821884155273 4.696218967437744 9.040343284606934 6.868281364440918 6.868281364440918 C 9.040343284606934 4.696218967437744 11.92821884155273 3.5 15 3.5 L 145 3.5 C 148.07177734375 3.5 150.9596557617188 4.696218967437744 153.1317138671875 6.868281364440918 C 155.3037872314453 9.040343284606934 156.5 11.92821884155273 156.5 15 L 156.5 202 C 156.5 205.07177734375 155.3037872314453 207.9596557617188 153.1317138671875 210.1317138671875 C 150.9596557617188 212.3037872314453 148.07177734375 213.5 145 213.5 Z" stroke="none"/><path d="M 15 7 C 10.58879089355469 7 7 10.58879089355469 7 15 L 7 202 C 7 206.4112091064453 10.58879089355469 210 15 210 L 145 210 C 149.4112091064453 210 153 206.4112091064453 153 202 L 153 15 C 153 10.58879089355469 149.4112091064453 7 145 7 L 15 7 M 15 0 L 145 0 C 153.2842864990234 0 160 6.715713500976563 160 15 L 160 202 C 160 210.2842559814453 153.2842864990234 217 145 217 L 15 217 C 6.715713500976563 217 0 210.2842559814453 0 202 L 0 15 C 0 6.715713500976563 6.715713500976563 0 15 0 Z" stroke="none" fill="#efefef"/></g><path d="M41.738-39.273q0,12.561-5.167,21.863A35.754,35.754,0,0,1,21.942-3.021Q12.482,2.067-.4,2.067q-19.716,0-30.926-11.13t-11.21-30.846q0-10.812,4.849-23.373a109.067,109.067,0,0,1,13.754-24.8L-5.167-114H21.227L.557-85.542q-4.611,6.519-7.95,11.925a28.871,28.871,0,0,1,14.151-3.5q16.218,0,25.6,10.176T41.738-39.273Zm-60.738.8q0,9.858,4.929,15.423T-.4-17.49q8.586,0,13.594-5.724T18.206-38.8q0-9.222-4.611-14.708a15.368,15.368,0,0,0-12.4-5.486q-13.038,0-19.557,12.084A55.343,55.343,0,0,0-19-38.478Z" transform="translate(5507 1294)" fill="#8b8580" opacity="0.1"/><path d="M30.052,14V.914h5.022a5.375,5.375,0,0,1,3.6,1.08,3.811,3.811,0,0,1,1.26,3.06,3.885,3.885,0,0,1-.711,2.358A3.853,3.853,0,0,1,37.216,8.8L40.492,14H37.4L34.624,9.3l-1.782-.45V14Zm2.79-6.984H34.21a4.392,4.392,0,0,0,2.277-.423,1.647,1.647,0,0,0,.639-1.485,1.647,1.647,0,0,0-.639-1.485A4.392,4.392,0,0,0,34.21,3.2H32.842ZM49.456,13.55a7.584,7.584,0,0,1-3.312.666,5.155,5.155,0,0,1-3.762-1.287,4.971,4.971,0,0,1-1.314-3.717,5.016,5.016,0,0,1,1.269-3.636,4.639,4.639,0,0,1,3.5-1.314,3.873,3.873,0,0,1,3.024,1.152A4.571,4.571,0,0,1,49.906,8.6V9.986h-6.12a2.4,2.4,0,0,0,.8,1.62,2.925,2.925,0,0,0,1.845.5,7.565,7.565,0,0,0,1.449-.135,9.415,9.415,0,0,0,1.575-.477ZM45.8,6.242A1.866,1.866,0,0,0,43.732,8.2h3.744a2.277,2.277,0,0,0-.486-1.44A1.492,1.492,0,0,0,45.8,6.242ZM57.88,17.618V13.172a3.418,3.418,0,0,1-1.107.765,3.359,3.359,0,0,1-1.359.279A3.536,3.536,0,0,1,52.5,12.893a5.733,5.733,0,0,1-1.062-3.681,5.592,5.592,0,0,1,1.071-3.645,3.621,3.621,0,0,1,2.961-1.3,3.526,3.526,0,0,1,1.692.4,3.947,3.947,0,0,1,1.314,1.161l.36-1.35h1.782v13.14Zm-3.69-8.37a4.319,4.319,0,0,0,.468,2.2,1.516,1.516,0,0,0,1.386.783,2.16,2.16,0,0,0,1.908-1.044V7.268a2.5,2.5,0,0,0-.846-.738,2.183,2.183,0,0,0-1.044-.27,1.528,1.528,0,0,0-1.4.792A4.328,4.328,0,0,0,54.19,9.248Zm8.712,1.08V4.478h2.736v5.76q0,1.746,1.368,1.746a1.827,1.827,0,0,0,1.125-.387,2.556,2.556,0,0,0,.8-1.053V4.478h2.736V14H69.886l-.378-1.458a4.061,4.061,0,0,1-3.33,1.674,3,3,0,0,1-2.43-1.008A4.362,4.362,0,0,1,62.9,10.328ZM81.946,13.55a7.584,7.584,0,0,1-3.312.666,5.155,5.155,0,0,1-3.762-1.287,4.971,4.971,0,0,1-1.314-3.717,5.016,5.016,0,0,1,1.269-3.636,4.639,4.639,0,0,1,3.5-1.314,3.873,3.873,0,0,1,3.024,1.152A4.571,4.571,0,0,1,82.4,8.6V9.986h-6.12a2.4,2.4,0,0,0,.8,1.62,2.925,2.925,0,0,0,1.845.5,7.565,7.565,0,0,0,1.449-.135,9.415,9.415,0,0,0,1.575-.477ZM78.292,6.242A1.866,1.866,0,0,0,76.222,8.2h3.744a2.277,2.277,0,0,0-.486-1.44A1.492,1.492,0,0,0,78.292,6.242Zm5.724,7.344v-2.16a11.237,11.237,0,0,0,1.674.495,7.877,7.877,0,0,0,1.566.153q1.548,0,1.548-.792a.588.588,0,0,0-.3-.5,3.771,3.771,0,0,0-.981-.4L86.194,10A4.037,4.037,0,0,1,84.376,9,2.364,2.364,0,0,1,83.764,7.3a2.636,2.636,0,0,1,1.08-2.232,4.85,4.85,0,0,1,2.97-.81,9.546,9.546,0,0,1,1.638.144,6.523,6.523,0,0,1,1.422.4V6.926a8.438,8.438,0,0,0-3.006-.558q-1.44,0-1.44.738a.554.554,0,0,0,.288.45,3.6,3.6,0,0,0,.954.4L89,8.33a4.087,4.087,0,0,1,1.917,1.008,2.586,2.586,0,0,1,.549,1.782,2.691,2.691,0,0,1-1.062,2.313,5.17,5.17,0,0,1-3.1.783,10.006,10.006,0,0,1-1.836-.171A5.16,5.16,0,0,1,84.016,13.586Zm9.774-2.862V6.53H92.116V5.162l1.8-.738.81-2.682h1.8V4.478H98.56V6.53H96.526v4.05a1.246,1.246,0,0,0,.351,1,1.535,1.535,0,0,0,1.017.3q.18,0,.4-.009t.378-.027v2.178a6.98,6.98,0,0,1-.783.09q-.351.018-.783.018a3.379,3.379,0,0,1-2.475-.828A3.487,3.487,0,0,1,93.79,10.724ZM16.822,41V27.914h8.352V30.29H19.63v3.294h4.914V35.96H19.63V41Zm17.838-.45a7.584,7.584,0,0,1-3.312.666,5.155,5.155,0,0,1-3.762-1.287,4.971,4.971,0,0,1-1.314-3.717,5.016,5.016,0,0,1,1.269-3.636,4.639,4.639,0,0,1,3.5-1.314,3.873,3.873,0,0,1,3.024,1.152A4.571,4.571,0,0,1,35.11,35.6v1.386H28.99a2.4,2.4,0,0,0,.8,1.62,2.925,2.925,0,0,0,1.845.5,7.565,7.565,0,0,0,1.449-.135A9.415,9.415,0,0,0,34.66,38.5Zm-3.654-7.308a1.866,1.866,0,0,0-2.07,1.962H32.68a2.277,2.277,0,0,0-.486-1.44A1.492,1.492,0,0,0,31.006,33.242ZM45.028,40.55a7.584,7.584,0,0,1-3.312.666,5.155,5.155,0,0,1-3.762-1.287,4.971,4.971,0,0,1-1.314-3.717,5.016,5.016,0,0,1,1.269-3.636,4.639,4.639,0,0,1,3.5-1.314,3.873,3.873,0,0,1,3.024,1.152A4.571,4.571,0,0,1,45.478,35.6v1.386h-6.12a2.4,2.4,0,0,0,.8,1.62,2.925,2.925,0,0,0,1.845.5,7.565,7.565,0,0,0,1.449-.135,9.415,9.415,0,0,0,1.575-.477Zm-3.654-7.308A1.866,1.866,0,0,0,39.3,35.2h3.744a2.277,2.277,0,0,0-.486-1.44A1.492,1.492,0,0,0,41.374,33.242ZM54.406,41l-.378-1.4a3.517,3.517,0,0,1-2.988,1.62,3.606,3.606,0,0,1-2.952-1.323,5.6,5.6,0,0,1-1.08-3.645,5.729,5.729,0,0,1,1.053-3.672,3.579,3.579,0,0,1,2.961-1.314,3.408,3.408,0,0,1,2.43.954V27.482h2.736V41Zm-4.644-4.77a4.179,4.179,0,0,0,.486,2.214,1.53,1.53,0,0,0,1.368.774,2.111,2.111,0,0,0,1.053-.279,2.442,2.442,0,0,0,.819-.747V34.124a2.3,2.3,0,0,0-1.854-.864,1.549,1.549,0,0,0-1.386.765A4.13,4.13,0,0,0,49.762,36.23Zm4.086,1.188-.108.288A1.407,1.407,0,0,0,53.848,37.418Zm4.662,3.114V27.482h2.736v4.68a3.5,3.5,0,0,1,2.412-.9,3.419,3.419,0,0,1,2.835,1.251,5.573,5.573,0,0,1,1,3.555,5.672,5.672,0,0,1-.63,2.745,4.3,4.3,0,0,1-1.8,1.782,5.916,5.916,0,0,1-2.808.621,10.556,10.556,0,0,1-1.962-.2A10.16,10.16,0,0,1,58.51,40.532Zm4.446-7.308a2.187,2.187,0,0,0-1.746.918v4.842a2.623,2.623,0,0,0,.513.135,3.9,3.9,0,0,0,.495.027q2.52,0,2.52-3.1a3.9,3.9,0,0,0-.468-2.088A1.474,1.474,0,0,0,62.956,33.224ZM75.358,41,75,39.668A3.452,3.452,0,0,1,73.729,40.8a3.658,3.658,0,0,1-1.737.414,3.251,3.251,0,0,1-2.331-.81,2.927,2.927,0,0,1-.855-2.232,2.8,2.8,0,0,1,1.134-2.358A4.929,4.929,0,0,1,73,34.952h1.566V34.61q0-.792-.4-1.026a2.527,2.527,0,0,0-1.242-.234,8.969,8.969,0,0,0-3.258.684v-2.07a8.9,8.9,0,0,1,1.683-.5,9.673,9.673,0,0,1,1.953-.2,4.221,4.221,0,0,1,2.853.855,3.084,3.084,0,0,1,.981,2.457V41Zm-2.664-1.782a2.077,2.077,0,0,0,1.1-.306,2.483,2.483,0,0,0,.828-.828V36.536H73.342a2.5,2.5,0,0,0-1.449.36,1.179,1.179,0,0,0-.513,1.026A1.154,1.154,0,0,0,72.694,39.218Zm13.842-.648v2.142a7.607,7.607,0,0,1-1.314.36,8.255,8.255,0,0,1-1.548.144q-4.734,0-4.734-5.076a4.513,4.513,0,0,1,4.9-4.878,7.335,7.335,0,0,1,2.43.414v2.106a4.215,4.215,0,0,0-1.944-.45,2.61,2.61,0,0,0-1.944.693,2.9,2.9,0,0,0-.684,2.115,3.526,3.526,0,0,0,.6,2.169,2.081,2.081,0,0,0,1.773.8,5.18,5.18,0,0,0,1.188-.144A10.267,10.267,0,0,0,86.536,38.57ZM88.318,41V27.482h2.736V35.24l3.258-3.762H97.3L93.88,35.42,97.462,41H94.4l-2.61-4.176h-.738V41Zm13.7,3.618,7.416-17.136h2.934l-7.434,17.136ZM45.073,68l4.968-13.086h2.718l5,13.086H54.631l-.864-2.682H48.943L48.079,68ZM49.7,62.942h3.294l-1.656-5.148ZM58.375,68l4.968-13.086h2.718l5,13.086H67.933l-.864-2.682H62.245L61.381,68ZM63,62.942h3.294l-1.656-5.148ZM72.469,68V54.914h5.022a5.375,5.375,0,0,1,3.6,1.08,3.811,3.811,0,0,1,1.26,3.06A3.709,3.709,0,0,1,79.633,62.8L82.909,68h-3.1l-2.772-4.7-1.782-.45V68Zm2.79-6.984h1.368a4.392,4.392,0,0,0,2.277-.423,2.045,2.045,0,0,0,0-2.97,4.392,4.392,0,0,0-2.277-.423H75.259Z" transform="translate(5480 1196)" fill="#2c5967"/><path d="M8,0H138a8,8,0,0,1,8,8V80H0V8A8,8,0,0,1,8,0Z" transform="translate(5471 1086)" fill="#2c5967"/><path d="M18.711-14.062a13.892,13.892,0,0,1,3.594,2.08A13.818,13.818,0,0,1,25.078-9a14,14,0,0,1,1.787,3.652,13.307,13.307,0,0,1,.635,4.1V0H25V-1.25a10.884,10.884,0,0,0-.889-4.375A11.423,11.423,0,0,0,21.7-9.2a11.423,11.423,0,0,0-3.574-2.412A10.884,10.884,0,0,0,13.75-12.5a10.884,10.884,0,0,0-4.375.889A11.423,11.423,0,0,0,5.8-9.2,11.423,11.423,0,0,0,3.389-5.625,10.884,10.884,0,0,0,2.5-1.25V0H0V-1.25a13.307,13.307,0,0,1,.635-4.1A14,14,0,0,1,2.422-9,13.818,13.818,0,0,1,5.2-11.982a13.892,13.892,0,0,1,3.594-2.08,8.558,8.558,0,0,1-1.582-1.406A8.883,8.883,0,0,1,6.016-17.2a8.981,8.981,0,0,1-.752-1.953A8.4,8.4,0,0,1,5-21.25a8.441,8.441,0,0,1,.693-3.408,8.914,8.914,0,0,1,1.875-2.773,8.914,8.914,0,0,1,2.773-1.875A8.441,8.441,0,0,1,13.75-30a8.441,8.441,0,0,1,3.408.693,8.914,8.914,0,0,1,2.773,1.875,8.914,8.914,0,0,1,1.875,2.773A8.441,8.441,0,0,1,22.5-21.25a8.4,8.4,0,0,1-.264,2.1,8.981,8.981,0,0,1-.752,1.953,8.883,8.883,0,0,1-1.191,1.729A8.558,8.558,0,0,1,18.711-14.062ZM13.75-15a6.053,6.053,0,0,0,2.422-.488,6.3,6.3,0,0,0,1.982-1.338A6.409,6.409,0,0,0,19.5-18.818,6.019,6.019,0,0,0,20-21.25a5.95,5.95,0,0,0-.5-2.422,6.441,6.441,0,0,0-1.348-1.982A6.441,6.441,0,0,0,16.172-27a5.95,5.95,0,0,0-2.422-.5,6.019,6.019,0,0,0-2.432.5,6.409,6.409,0,0,0-1.992,1.348,6.3,6.3,0,0,0-1.338,1.982A6.053,6.053,0,0,0,7.5-21.25a6.123,6.123,0,0,0,.488,2.432,6.272,6.272,0,0,0,1.338,1.992,6.272,6.272,0,0,0,1.992,1.338A6.123,6.123,0,0,0,13.75-15ZM40-40v20H35l-7.5,7.5V-20H25v-2.5h5v3.965L33.965-22.5H37.5v-15h-25v4.492q-.625.078-1.26.205a8.956,8.956,0,0,0-1.24.342V-40Z" transform="translate(5524 1146)" fill="#fff"/><g transform="translate(5663 1079)" fill="#fff"><path d="M 145 213.5 L 15 213.5 C 11.92821884155273 213.5 9.040343284606934 212.3037872314453 6.868281364440918 210.1317138671875 C 4.696218967437744 207.9596557617188 3.5 205.07177734375 3.5 202 L 3.5 15 C 3.5 11.92821884155273 4.696218967437744 9.040343284606934 6.868281364440918 6.868281364440918 C 9.040343284606934 4.696218967437744 11.92821884155273 3.5 15 3.5 L 145 3.5 C 148.07177734375 3.5 150.9596557617188 4.696218967437744 153.1317138671875 6.868281364440918 C 155.3037872314453 9.040343284606934 156.5 11.92821884155273 156.5 15 L 156.5 202 C 156.5 205.07177734375 155.3037872314453 207.9596557617188 153.1317138671875 210.1317138671875 C 150.9596557617188 212.3037872314453 148.07177734375 213.5 145 213.5 Z" stroke="none"/><path d="M 15 7 C 10.58879089355469 7 7 10.58879089355469 7 15 L 7 202 C 7 206.4112091064453 10.58879089355469 210 15 210 L 145 210 C 149.4112091064453 210 153 206.4112091064453 153 202 L 153 15 C 153 10.58879089355469 149.4112091064453 7 145 7 L 15 7 M 15 0 L 145 0 C 153.2842864990234 0 160 6.715713500976563 160 15 L 160 202 C 160 210.2842559814453 153.2842864990234 217 145 217 L 15 217 C 6.715713500976563 217 0 210.2842559814453 0 202 L 0 15 C 0 6.715713500976563 6.715713500976563 0 15 0 Z" stroke="none" fill="#efefef"/></g><path d="M-25.2,0,15.821-93.333h-34.5l-6.837,17.808H-40.147V-114H41.738v16.536L1.829,0Z" transform="translate(5703 1296)" fill="#8b8580" opacity="0.1"/><path d="M14.736,14V.914H17.67l4.158,8.622,4.1-8.622h2.934V14H26.094V5.522L22.638,12.74H20.91L17.454,5.63V14Zm22.572,0-.36-1.332A3.452,3.452,0,0,1,35.679,13.8a3.658,3.658,0,0,1-1.737.414,3.251,3.251,0,0,1-2.331-.81,2.927,2.927,0,0,1-.855-2.232A2.8,2.8,0,0,1,31.89,8.816a4.929,4.929,0,0,1,3.06-.864h1.566V7.61q0-.792-.4-1.026a2.527,2.527,0,0,0-1.242-.234,8.969,8.969,0,0,0-3.258.684V4.964a8.9,8.9,0,0,1,1.683-.5,9.672,9.672,0,0,1,1.953-.2,4.221,4.221,0,0,1,2.853.855,3.084,3.084,0,0,1,.981,2.457V14Zm-2.664-1.782a2.077,2.077,0,0,0,1.1-.306,2.483,2.483,0,0,0,.828-.828V9.536H35.292a2.5,2.5,0,0,0-1.449.36,1.179,1.179,0,0,0-.513,1.026A1.154,1.154,0,0,0,34.644,12.218ZM41.376,14V4.478h1.782l.378,1.458a4.129,4.129,0,0,1,3.4-1.674,3.128,3.128,0,0,1,2.5,1A4.293,4.293,0,0,1,50.3,8.15V14H47.568V8.24q0-1.746-1.458-1.746a1.987,1.987,0,0,0-1.179.378,2.416,2.416,0,0,0-.819,1.062V14Zm17.19,0-.36-1.332A3.452,3.452,0,0,1,56.937,13.8a3.658,3.658,0,0,1-1.737.414,3.251,3.251,0,0,1-2.331-.81,2.927,2.927,0,0,1-.855-2.232,2.8,2.8,0,0,1,1.134-2.358,4.929,4.929,0,0,1,3.06-.864h1.566V7.61q0-.792-.4-1.026a2.527,2.527,0,0,0-1.242-.234,8.969,8.969,0,0,0-3.258.684V4.964a8.9,8.9,0,0,1,1.683-.5,9.672,9.672,0,0,1,1.953-.2,4.221,4.221,0,0,1,2.853.855,3.084,3.084,0,0,1,.981,2.457V14ZM55.9,12.218a2.077,2.077,0,0,0,1.1-.306,2.483,2.483,0,0,0,.828-.828V9.536H56.55A2.5,2.5,0,0,0,55.1,9.9a1.179,1.179,0,0,0-.513,1.026A1.154,1.154,0,0,0,55.9,12.218Zm6.462.774L62.058,11.8,63.606,9.59a2.791,2.791,0,0,1-.864-2.106,2.855,2.855,0,0,1,1.071-2.376,4.693,4.693,0,0,1,2.979-.846,5.671,5.671,0,0,1,1.872.306l3.294-.018V5.9l-1.008.414a2.155,2.155,0,0,1,.468,1.4A2.5,2.5,0,0,1,70.266,9.9a5.56,5.56,0,0,1-3.186.792,6.777,6.777,0,0,1-1.782-.216l-.684.972,4.248.5q3.114.378,3.114,2.772A2.579,2.579,0,0,1,70.662,17a6.621,6.621,0,0,1-3.582.837,7.447,7.447,0,0,1-3.564-.684,2.17,2.17,0,0,1-1.224-2,2.529,2.529,0,0,1,1.044-1.98Zm2.862-5.508q0,1.368,1.854,1.368t1.854-1.368q0-1.368-1.854-1.368T65.226,7.484Zm-.378,7.128a.97.97,0,0,0,.531.918,3.753,3.753,0,0,0,1.7.288q2.286,0,2.286-.972a.636.636,0,0,0-.216-.531,2.028,2.028,0,0,0-.846-.279L65.3,13.514A1.574,1.574,0,0,0,64.848,14.612Zm16.6-1.062a7.584,7.584,0,0,1-3.312.666,5.155,5.155,0,0,1-3.762-1.287,4.971,4.971,0,0,1-1.314-3.717,5.016,5.016,0,0,1,1.269-3.636,4.639,4.639,0,0,1,3.5-1.314A3.873,3.873,0,0,1,80.85,5.414,4.571,4.571,0,0,1,81.894,8.6V9.986h-6.12a2.4,2.4,0,0,0,.8,1.62,2.925,2.925,0,0,0,1.845.5,7.565,7.565,0,0,0,1.449-.135,9.415,9.415,0,0,0,1.575-.477ZM77.79,6.242A1.866,1.866,0,0,0,75.72,8.2h3.744a2.277,2.277,0,0,0-.486-1.44A1.492,1.492,0,0,0,77.79,6.242ZM2.118,41V27.914H7.14a5.375,5.375,0,0,1,3.6,1.08A3.811,3.811,0,0,1,12,32.054a3.885,3.885,0,0,1-.711,2.358A3.853,3.853,0,0,1,9.282,35.8L12.558,41h-3.1L6.69,36.3l-1.782-.45V41Zm2.79-6.984H6.276a4.392,4.392,0,0,0,2.277-.423,1.647,1.647,0,0,0,.639-1.485,1.647,1.647,0,0,0-.639-1.485A4.392,4.392,0,0,0,6.276,30.2H4.908ZM21.522,40.55a7.584,7.584,0,0,1-3.312.666,5.155,5.155,0,0,1-3.762-1.287,4.971,4.971,0,0,1-1.314-3.717A5.016,5.016,0,0,1,14.4,32.576a4.639,4.639,0,0,1,3.5-1.314,3.873,3.873,0,0,1,3.024,1.152A4.571,4.571,0,0,1,21.972,35.6v1.386h-6.12a2.4,2.4,0,0,0,.8,1.62,2.925,2.925,0,0,0,1.845.5,7.565,7.565,0,0,0,1.449-.135,9.415,9.415,0,0,0,1.575-.477Zm-3.654-7.308A1.866,1.866,0,0,0,15.8,35.2h3.744a2.277,2.277,0,0,0-.486-1.44A1.492,1.492,0,0,0,17.868,33.242Zm5.76,4.158V35.078h5.58V37.4Zm7.686-.072v-5.85H34.05v5.76q0,1.746,1.368,1.746a1.827,1.827,0,0,0,1.125-.387,2.556,2.556,0,0,0,.8-1.053V31.478H40.08V41H38.3l-.378-1.458a4.061,4.061,0,0,1-3.33,1.674,2.994,2.994,0,0,1-2.43-1.008A4.362,4.362,0,0,1,31.314,37.328ZM42.06,40.586v-2.16a11.238,11.238,0,0,0,1.674.5,7.877,7.877,0,0,0,1.566.153q1.548,0,1.548-.792a.588.588,0,0,0-.3-.5,3.771,3.771,0,0,0-.981-.4L44.238,37A4.037,4.037,0,0,1,42.42,36a2.364,2.364,0,0,1-.612-1.692,2.636,2.636,0,0,1,1.08-2.232,4.85,4.85,0,0,1,2.97-.81,9.546,9.546,0,0,1,1.638.144,6.523,6.523,0,0,1,1.422.4v2.124a8.438,8.438,0,0,0-3.006-.558q-1.44,0-1.44.738a.554.554,0,0,0,.288.45,3.6,3.6,0,0,0,.954.4l1.332.378a4.087,4.087,0,0,1,1.917,1.008,2.586,2.586,0,0,1,.549,1.782,2.691,2.691,0,0,1-1.062,2.313,5.17,5.17,0,0,1-3.1.783,10.006,10.006,0,0,1-1.836-.171A5.159,5.159,0,0,1,42.06,40.586ZM57.324,41l-.36-1.332A3.452,3.452,0,0,1,55.7,40.8a3.658,3.658,0,0,1-1.737.414,3.251,3.251,0,0,1-2.331-.81,2.927,2.927,0,0,1-.855-2.232,2.8,2.8,0,0,1,1.134-2.358,4.929,4.929,0,0,1,3.06-.864h1.566V34.61q0-.792-.4-1.026a2.527,2.527,0,0,0-1.242-.234,8.969,8.969,0,0,0-3.258.684v-2.07a8.9,8.9,0,0,1,1.683-.5,9.672,9.672,0,0,1,1.953-.2,4.221,4.221,0,0,1,2.853.855,3.084,3.084,0,0,1,.981,2.457V41ZM54.66,39.218a2.077,2.077,0,0,0,1.1-.306,2.483,2.483,0,0,0,.828-.828V36.536H55.308a2.5,2.5,0,0,0-1.449.36,1.179,1.179,0,0,0-.513,1.026A1.154,1.154,0,0,0,54.66,39.218Zm6.678,1.314V27.482h2.736v4.68a3.5,3.5,0,0,1,2.412-.9,3.419,3.419,0,0,1,2.835,1.251,5.573,5.573,0,0,1,1,3.555,5.672,5.672,0,0,1-.63,2.745,4.3,4.3,0,0,1-1.8,1.782,5.916,5.916,0,0,1-2.808.621,10.556,10.556,0,0,1-1.962-.2A10.16,10.16,0,0,1,61.338,40.532Zm4.446-7.308a2.187,2.187,0,0,0-1.746.918v4.842a2.623,2.623,0,0,0,.513.135,3.9,3.9,0,0,0,.5.027q2.52,0,2.52-3.1a3.9,3.9,0,0,0-.468-2.088A1.474,1.474,0,0,0,65.784,33.224ZM72.156,41V29.408l-.99-.828v-1.1h3.726V41Zm13.014-.45a7.584,7.584,0,0,1-3.312.666A5.155,5.155,0,0,1,78.1,39.929a4.971,4.971,0,0,1-1.314-3.717,5.016,5.016,0,0,1,1.269-3.636,4.639,4.639,0,0,1,3.5-1.314,3.873,3.873,0,0,1,3.024,1.152A4.571,4.571,0,0,1,85.62,35.6v1.386H79.5a2.4,2.4,0,0,0,.8,1.62,2.925,2.925,0,0,0,1.845.5,7.565,7.565,0,0,0,1.449-.135A9.415,9.415,0,0,0,85.17,38.5Zm-3.654-7.308a1.866,1.866,0,0,0-2.07,1.962H83.19a2.277,2.277,0,0,0-.486-1.44A1.492,1.492,0,0,0,81.516,33.242Zm5.724,7.344v-2.16a11.237,11.237,0,0,0,1.674.5,7.877,7.877,0,0,0,1.566.153q1.548,0,1.548-.792a.588.588,0,0,0-.3-.5,3.771,3.771,0,0,0-.981-.4L89.418,37A4.037,4.037,0,0,1,87.6,36a2.364,2.364,0,0,1-.612-1.692,2.636,2.636,0,0,1,1.08-2.232,4.85,4.85,0,0,1,2.97-.81,9.546,9.546,0,0,1,1.638.144,6.523,6.523,0,0,1,1.422.4v2.124a8.438,8.438,0,0,0-3.006-.558q-1.44,0-1.44.738a.554.554,0,0,0,.288.45,3.6,3.6,0,0,0,.954.4l1.332.378a4.087,4.087,0,0,1,1.917,1.008,2.586,2.586,0,0,1,.549,1.782,2.691,2.691,0,0,1-1.062,2.313,5.17,5.17,0,0,1-3.1.783,10.006,10.006,0,0,1-1.836-.171A5.159,5.159,0,0,1,87.24,40.586Z" transform="translate(5694 1208)" fill="#67605b"/><path d="M8,0H138a8,8,0,0,1,8,8V80H0V8A8,8,0,0,1,8,0Z" transform="translate(5670 1086)" fill="#67605b"/><path d="M37.5-17.5H40V-10H32.5v-2.5h3.75a6.165,6.165,0,0,0-2.207-1.836A6.165,6.165,0,0,0,31.25-15a6.072,6.072,0,0,0-1.914.3,6.491,6.491,0,0,0-1.7.85,6.206,6.206,0,0,0-1.367,1.309,6.114,6.114,0,0,0-.918,1.7l-2.344-.82A8.774,8.774,0,0,1,24.3-14.043a8.822,8.822,0,0,1,1.9-1.846,8.729,8.729,0,0,1,2.373-1.191,8.584,8.584,0,0,1,2.676-.42,8.659,8.659,0,0,1,3.4.684A8.571,8.571,0,0,1,37.5-14.863ZM8.75-40a8.545,8.545,0,0,1,3.408.684,8.812,8.812,0,0,1,2.783,1.875,8.812,8.812,0,0,1,1.875,2.783A8.545,8.545,0,0,1,17.5-31.25a8.545,8.545,0,0,1-.684,3.408,8.812,8.812,0,0,1-1.875,2.783,8.812,8.812,0,0,1-2.783,1.875A8.545,8.545,0,0,1,8.75-22.5a8.545,8.545,0,0,1-3.408-.684,8.812,8.812,0,0,1-2.783-1.875A8.812,8.812,0,0,1,.684-27.842,8.545,8.545,0,0,1,0-31.25a8.545,8.545,0,0,1,.684-3.408,8.812,8.812,0,0,1,1.875-2.783,8.812,8.812,0,0,1,2.783-1.875A8.545,8.545,0,0,1,8.75-40ZM2.5-31.25a6.123,6.123,0,0,0,.488,2.432,6.272,6.272,0,0,0,1.338,1.992,6.272,6.272,0,0,0,1.992,1.338A6.122,6.122,0,0,0,8.75-25a6.22,6.22,0,0,0,1.8-.264,6.1,6.1,0,0,0,1.641-.771L3.535-34.687a6.1,6.1,0,0,0-.771,1.641A6.22,6.22,0,0,0,2.5-31.25Zm11.465,3.438a6.1,6.1,0,0,0,.771-1.641A6.22,6.22,0,0,0,15-31.25a5.95,5.95,0,0,0-.5-2.422,6.441,6.441,0,0,0-1.348-1.982A6.441,6.441,0,0,0,11.172-37a5.951,5.951,0,0,0-2.422-.5,6.221,6.221,0,0,0-1.8.264,6.1,6.1,0,0,0-1.641.771ZM10-10h7.5v2.5H10V0H7.5V-7.5H0V-10H7.5v-7.5H10ZM31.25-2.5a6.072,6.072,0,0,0,1.914-.3,6.333,6.333,0,0,0,1.689-.85,6.505,6.505,0,0,0,1.367-1.309,5.976,5.976,0,0,0,.928-1.7l2.344.82A8.775,8.775,0,0,1,38.2-3.457a8.822,8.822,0,0,1-1.9,1.846A8.73,8.73,0,0,1,33.926-.42,8.584,8.584,0,0,1,31.25,0a8.659,8.659,0,0,1-3.4-.684A8.571,8.571,0,0,1,25-2.637V0H22.5V-7.5H30V-5H26.25a6.165,6.165,0,0,0,2.207,1.836A6.165,6.165,0,0,0,31.25-2.5ZM24.023-29.824a5.117,5.117,0,0,1-1.133-1.7,5.223,5.223,0,0,1-.391-1.992,5.151,5.151,0,0,1,.41-2.051,5.24,5.24,0,0,1,1.113-1.66,5.27,5.27,0,0,1,1.65-1.113,5.081,5.081,0,0,1,2.041-.41,5.229,5.229,0,0,1,1.9.352,5.125,5.125,0,0,1,1.631,1.016A5.125,5.125,0,0,1,32.881-38.4a5.229,5.229,0,0,1,1.9-.352,5.1,5.1,0,0,1,2.031.41,5.24,5.24,0,0,1,1.66,1.113,5.24,5.24,0,0,1,1.113,1.66A5.151,5.151,0,0,1,40-33.516a5.223,5.223,0,0,1-.391,1.992,5.117,5.117,0,0,1-1.133,1.7L31.25-22.617Zm3.711-6.426a2.658,2.658,0,0,0-1.064.215,2.765,2.765,0,0,0-.869.586,2.765,2.765,0,0,0-.586.869A2.658,2.658,0,0,0,25-33.516a2.646,2.646,0,0,0,.205,1.035,2.731,2.731,0,0,0,.6.879l5.449,5.449L36.7-31.6a2.612,2.612,0,0,0,.8-1.914,2.659,2.659,0,0,0-.215-1.064,2.765,2.765,0,0,0-.586-.869,2.765,2.765,0,0,0-.869-.586,2.659,2.659,0,0,0-1.064-.215,2.612,2.612,0,0,0-1.914.8l-1.6,1.6-1.6-1.6a2.731,2.731,0,0,0-.879-.6A2.646,2.646,0,0,0,27.734-36.25Z" transform="translate(5723 1146)" fill="#fff"/><path d="M10-40,30-20,10,0Z" transform="translate(4636 1234)" fill="#8b8580"/><path d="M10-40,30-20,10,0Z" transform="translate(4830 1234)" fill="#8b8580"/><path d="M10-40,30-20,10,0Z" transform="translate(5023 1234)" fill="#8b8580"/><path d="M10-40,30-20,10,0Z" transform="translate(5221 1234)" fill="#8b8580"/><path d="M10-40,30-20,10,0Z" transform="translate(5415 1234)" fill="#8b8580"/><path d="M10-40,30-20,10,0Z" transform="translate(5614 1234)" fill="#8b8580"/><path d="M613.5,423.5V380.686h88.961l7.428-10.553,8.031,10.553H811.7V423.5" transform="translate(5378.198 1748.632) rotate(180)" fill="none" stroke="#94afaf" stroke-width="6"/><path d="M651.5,423.5V380.686h60.961l7.428-10.553,8.031,10.553H800.7V423.5" transform="translate(6469.198 1748.632) rotate(180)" fill="none" stroke="#94afaf" stroke-width="6"/><path d="M423.5,423.5V380.686H712.461l7.428-10.553,8.031,10.553H1017.7V423.5" transform="translate(5972.198 1748.632) rotate(180)" fill="none" stroke="#94afaf" stroke-width="6"/><g transform="matrix(1, 0, 0, 1, 4486, 1079)" filter="url(#a)"><path d="M7,0H193a7,7,0,0,1,7,7V64a7,7,0,0,1-7,7H7a7,7,0,0,1-7-7V7A7,7,0,0,1,7,0Z" transform="translate(79 331)" fill="#0090be"/></g><path d="M-34.961,0V-12.359h4.471a4.987,4.987,0,0,1,3.315.969,3.478,3.478,0,0,1,1.139,2.805,3.556,3.556,0,0,1-.705,2.261,3.707,3.707,0,0,1-2.032,1.258L-25.509,0h-2.363l-2.89-4.658-2.091-.425V0Zm2.108-6.477h1.581a6.7,6.7,0,0,0,1.853-.2,1.659,1.659,0,0,0,.969-.655,2.23,2.23,0,0,0,.289-1.216,2.312,2.312,0,0,0-.289-1.241,1.61,1.61,0,0,0-.969-.655,6.972,6.972,0,0,0-1.853-.2h-1.581ZM-17.3-.425a5.455,5.455,0,0,1-1.36.459,8.157,8.157,0,0,1-1.7.17A4.475,4.475,0,0,1-23.732-1,4.873,4.873,0,0,1-24.9-4.522a4.823,4.823,0,0,1,1.114-3.409,4.07,4.07,0,0,1,3.136-1.2,3.594,3.594,0,0,1,2.822,1.062,4.4,4.4,0,0,1,.952,3.035v1.156H-22.84a2.71,2.71,0,0,0,.774,1.853,2.806,2.806,0,0,0,1.913.578,6.615,6.615,0,0,0,1.411-.145A8.648,8.648,0,0,0-17.3-2.057Zm-3.366-7.14q-2.04,0-2.193,2.227h4.08Q-18.794-7.565-20.664-7.565Zm5.372,7.157V-2.091a9.507,9.507,0,0,0,1.53.484,6.855,6.855,0,0,0,1.428.145q1.819,0,1.819-1.037a.79.79,0,0,0-.3-.638,2.9,2.9,0,0,0-1.029-.451l-1.326-.357a3.764,3.764,0,0,1-1.768-.944A2.194,2.194,0,0,1-15.5-6.443a2.314,2.314,0,0,1,.969-1.972,4.353,4.353,0,0,1,2.635-.714,8.633,8.633,0,0,1,1.547.136,5.508,5.508,0,0,1,1.275.374V-6.97A7.614,7.614,0,0,0-11.807-7.5q-1.649,0-1.649.918a.717.717,0,0,0,.289.587,2.825,2.825,0,0,0,.969.417l1.326.374a4.02,4.02,0,0,1,1.853.961A2.321,2.321,0,0,1-8.475-2.6,2.429,2.429,0,0,1-9.461-.527,4.644,4.644,0,0,1-12.266.2a8.312,8.312,0,0,1-1.666-.17A5.317,5.317,0,0,1-15.292-.408Zm12.325.6a4.178,4.178,0,0,1-3.2-1.224A4.827,4.827,0,0,1-7.319-4.471,4.827,4.827,0,0,1-6.171-7.905a4.178,4.178,0,0,1,3.2-1.224A4.173,4.173,0,0,1,.246-7.905,4.85,4.85,0,0,1,1.385-4.471,4.85,4.85,0,0,1,.246-1.037,4.173,4.173,0,0,1-2.967.187Zm0-1.615q2.261,0,2.261-3.043T-2.967-7.514q-2.261,0-2.261,3.043T-2.967-1.428ZM3.187-3.434V-8.942H5.261V-3.5q0,1.972,1.564,1.972a2.158,2.158,0,0,0,1.3-.442,2.708,2.708,0,0,0,.909-1.19v-5.78h2.074V0H9.732L9.409-1.445A3.918,3.918,0,0,1,8.041-.238a3.72,3.72,0,0,1-1.76.425,2.853,2.853,0,0,1-2.3-.935A4.021,4.021,0,0,1,3.187-3.434ZM13.49,0V-8.942h1.377l.323,1.479A3.209,3.209,0,0,1,16.26-8.577a2.818,2.818,0,0,1,1.513-.4,3.234,3.234,0,0,1,.595.051v1.853h-.493a2.244,2.244,0,0,0-1.53.518,2.458,2.458,0,0,0-.782,1.369V0ZM26.342-2.023V-.34A5.235,5.235,0,0,1,25.1.06,7.528,7.528,0,0,1,23.6.2q-4.267,0-4.267-4.777a4.652,4.652,0,0,1,1.147-3.366,4.289,4.289,0,0,1,3.239-1.19,5.708,5.708,0,0,1,2.363.459V-7A4.305,4.305,0,0,0,24.115-7.5q-2.686,0-2.686,2.924a3.717,3.717,0,0,0,.621,2.363,2.3,2.3,0,0,0,1.9.765A6.357,6.357,0,0,0,26.342-2.023ZM35.2-.425a5.455,5.455,0,0,1-1.36.459,8.157,8.157,0,0,1-1.7.17A4.475,4.475,0,0,1,28.764-1,4.873,4.873,0,0,1,27.6-4.522a4.823,4.823,0,0,1,1.114-3.409,4.07,4.07,0,0,1,3.136-1.2,3.594,3.594,0,0,1,2.822,1.062,4.4,4.4,0,0,1,.952,3.035v1.156H29.657a2.71,2.71,0,0,0,.774,1.853,2.806,2.806,0,0,0,1.913.578,6.615,6.615,0,0,0,1.411-.145A8.648,8.648,0,0,0,35.2-2.057Zm-3.366-7.14q-2.04,0-2.193,2.227h4.08Q33.7-7.565,31.833-7.565ZM-51.451,23V10.641h2.21l4.284,8.84,4.216-8.84h2.193V23h-2.074V14.313l-3.638,7.5h-1.5l-3.621-7.378V23Zm20.978,0-.289-1.326A3.433,3.433,0,0,1-32,22.8a3.445,3.445,0,0,1-1.649.4,3.046,3.046,0,0,1-2.185-.765,2.721,2.721,0,0,1-.807-2.074,2.633,2.633,0,0,1,1.02-2.193,4.409,4.409,0,0,1,2.788-.8h1.683v-.425a1.483,1.483,0,0,0-.357-1.156,1.963,1.963,0,0,0-1.258-.306,9.035,9.035,0,0,0-3.06.629V14.5a7.788,7.788,0,0,1,1.547-.459,8.823,8.823,0,0,1,1.7-.17q3.485,0,3.485,3.06V23Zm-2.754-1.36a2.3,2.3,0,0,0,1.19-.331,2.615,2.615,0,0,0,.918-.927V18.7H-32.6q-2.057,0-2.057,1.5a1.455,1.455,0,0,0,.374,1.063A1.407,1.407,0,0,0-33.227,21.64ZM-26.784,23V14.058h1.377L-25.1,15.5A4.233,4.233,0,0,1-23.7,14.3a3.827,3.827,0,0,1,1.81-.425,2.981,2.981,0,0,1,2.363.926,3.958,3.958,0,0,1,.816,2.695V23h-2.074V17.56q0-1.972-1.683-1.972a2.207,2.207,0,0,0-1.334.442,2.708,2.708,0,0,0-.91,1.19V23Zm15.98,0-.289-1.326A3.433,3.433,0,0,1-12.334,22.8a3.445,3.445,0,0,1-1.649.4,3.046,3.046,0,0,1-2.184-.765,2.721,2.721,0,0,1-.808-2.074,2.633,2.633,0,0,1,1.02-2.193,4.409,4.409,0,0,1,2.788-.8h1.683v-.425a1.483,1.483,0,0,0-.357-1.156,1.963,1.963,0,0,0-1.258-.306,9.035,9.035,0,0,0-3.06.629V14.5a7.788,7.788,0,0,1,1.547-.459,8.823,8.823,0,0,1,1.7-.17q3.485,0,3.485,3.06V23Zm-2.754-1.36a2.3,2.3,0,0,0,1.19-.331,2.615,2.615,0,0,0,.918-.927V18.7h-1.479q-2.057,0-2.057,1.5a1.455,1.455,0,0,0,.374,1.063A1.407,1.407,0,0,0-13.558,21.64Zm6.307.374-.306-1.037L-6.146,18.9a2.649,2.649,0,0,1-.833-2.023,2.678,2.678,0,0,1,.994-2.21,4.329,4.329,0,0,1,2.78-.8,5.239,5.239,0,0,1,1.666.255l2.992-.017v1.037L.4,15.52a2.156,2.156,0,0,1,.544,1.513A2.462,2.462,0,0,1-.111,19.141a4.866,4.866,0,0,1-2.907.765,5.977,5.977,0,0,1-1.819-.255l-.7,1.037,4.182.544a3.81,3.81,0,0,1,2.134.79,2.2,2.2,0,0,1,.689,1.726,2.383,2.383,0,0,1-1.207,2.1,6.032,6.032,0,0,1-3.281.774,6.583,6.583,0,0,1-3.256-.655A2.061,2.061,0,0,1-7.4,24.088a2.453,2.453,0,0,1,1.02-1.938Zm2.193-5.134q0,1.564,2.04,1.564t2.04-1.564q0-1.547-2.04-1.547T-5.058,16.88Zm-.374,6.8q0,1.377,2.414,1.377a4.207,4.207,0,0,0,1.827-.323.993.993,0,0,0,.655-.9A.791.791,0,0,0-.8,23.178a2.054,2.054,0,0,0-.944-.314l-3.111-.476A1.751,1.751,0,0,0-5.432,23.68Zm15.555-1.1a5.455,5.455,0,0,1-1.36.459,8.157,8.157,0,0,1-1.7.17A4.475,4.475,0,0,1,3.689,22a4.873,4.873,0,0,1-1.164-3.519,4.823,4.823,0,0,1,1.113-3.409,4.07,4.07,0,0,1,3.137-1.2A3.594,3.594,0,0,1,9.6,14.933a4.4,4.4,0,0,1,.952,3.035v1.156H4.582a2.71,2.71,0,0,0,.773,1.853,2.806,2.806,0,0,0,1.913.578,6.615,6.615,0,0,0,1.411-.145,8.648,8.648,0,0,0,1.445-.467Zm-3.366-7.14q-2.04,0-2.193,2.227h4.08Q8.628,15.435,6.758,15.435ZM12.368,23V14.058h1.377l.306,1.394a3.78,3.78,0,0,1,1.292-1.165,3.4,3.4,0,0,1,1.649-.416,2.623,2.623,0,0,1,2.618,1.564A3.643,3.643,0,0,1,20.9,14.287a3.56,3.56,0,0,1,1.7-.416,2.747,2.747,0,0,1,2.236.926,4.107,4.107,0,0,1,.774,2.695V23H23.537V17.56q0-1.972-1.53-1.972A1.908,1.908,0,0,0,20.774,16a2.366,2.366,0,0,0-.757,1.164V23h-2.04V17.56q0-1.972-1.547-1.972a1.848,1.848,0,0,0-1.224.442,2.5,2.5,0,0,0-.765,1.19V23Zm22.644-.425a5.455,5.455,0,0,1-1.36.459,8.157,8.157,0,0,1-1.7.17A4.475,4.475,0,0,1,28.577,22a4.873,4.873,0,0,1-1.164-3.519,4.823,4.823,0,0,1,1.114-3.409,4.07,4.07,0,0,1,3.136-1.2,3.594,3.594,0,0,1,2.822,1.062,4.4,4.4,0,0,1,.952,3.035v1.156H29.47a2.71,2.71,0,0,0,.774,1.853,2.806,2.806,0,0,0,1.913.578,6.615,6.615,0,0,0,1.411-.145,8.648,8.648,0,0,0,1.445-.467Zm-3.366-7.14q-2.04,0-2.193,2.227h4.08Q33.516,15.435,31.646,15.435ZM37.256,23V14.058h1.377l.306,1.445a4.233,4.233,0,0,1,1.4-1.207,3.827,3.827,0,0,1,1.81-.425,2.981,2.981,0,0,1,2.363.926,3.958,3.958,0,0,1,.816,2.695V23H43.257V17.56q0-1.972-1.683-1.972a2.207,2.207,0,0,0-1.334.442,2.708,2.708,0,0,0-.91,1.19V23ZM48,20.093v-4.42H46.453V14.636l1.6-.612.7-2.482h1.326v2.516h1.921v1.615H50.074v4.4A1.39,1.39,0,0,0,50.4,21.1a1.312,1.312,0,0,0,.952.315q.187,0,.4-.009t.348-.025v1.632q-.34.051-.621.068t-.62.017a2.863,2.863,0,0,1-2.151-.731A3.18,3.18,0,0,1,48,20.093Z" transform="translate(4665 1439)" fill="#fff"/><g transform="matrix(1, 0, 0, 1, 4486, 1079)" filter="url(#c)"><path d="M7,0H193a7,7,0,0,1,7,7V64a7,7,0,0,1-7,7H7a7,7,0,0,1-7-7V7A7,7,0,0,1,7,0Z" transform="translate(668 331)" fill="#0090be"/></g><path d="M-23.511,1.139l.2-1a4.836,4.836,0,0,1-3.341-1.963,7.337,7.337,0,0,1-1.164-4.361,6.919,6.919,0,0,1,1.471-4.718,5.259,5.259,0,0,1,4.174-1.674,5.254,5.254,0,0,1,4.182,1.674,6.945,6.945,0,0,1,1.462,4.718q0,4.947-3.723,6.086l4,.884-.255,1.309Zm1.343-2.584a3.045,3.045,0,0,0,2.6-1.182,5.921,5.921,0,0,0,.884-3.562A5.613,5.613,0,0,0-19.559-9.6a3.058,3.058,0,0,0-2.609-1.165,3.035,3.035,0,0,0-2.6,1.165,5.654,5.654,0,0,0-.867,3.409Q-25.636-1.445-22.168-1.445Zm7.6-1.989V-8.942H-12.5V-3.5q0,1.972,1.564,1.972a2.158,2.158,0,0,0,1.3-.442,2.708,2.708,0,0,0,.909-1.19v-5.78h2.074V0H-8.024l-.323-1.445A3.918,3.918,0,0,1-9.716-.238a3.72,3.72,0,0,1-1.76.425A2.853,2.853,0,0,1-13.77-.748,4.021,4.021,0,0,1-14.569-3.434ZM1.326,0,1.037-1.326A3.433,3.433,0,0,1-.2-.2,3.445,3.445,0,0,1-1.853.2,3.046,3.046,0,0,1-4.038-.561a2.721,2.721,0,0,1-.808-2.074,2.633,2.633,0,0,1,1.02-2.193,4.409,4.409,0,0,1,2.788-.8H.646v-.425A1.483,1.483,0,0,0,.289-7.208,1.963,1.963,0,0,0-.969-7.514a9.035,9.035,0,0,0-3.06.629V-8.5a7.788,7.788,0,0,1,1.547-.459,8.823,8.823,0,0,1,1.7-.17q3.485,0,3.485,3.06V0ZM-1.428-1.36a2.3,2.3,0,0,0,1.19-.332A2.615,2.615,0,0,0,.68-2.618V-4.3H-.8q-2.057,0-2.057,1.5a1.455,1.455,0,0,0,.374,1.063A1.407,1.407,0,0,0-1.428-1.36ZM5.015,0V-11.254l-.9-.663v-.85H7.089V0ZM9.3-10.744v-1.7h2.363v1.7ZM9.6,0V-7.429l-.9-.663v-.85h2.975V0Zm4.811-2.907v-4.42H12.869V-8.364l1.6-.612.7-2.482H16.49v2.516h1.921v1.615H16.49v4.4A1.39,1.39,0,0,0,16.813-1.9a1.312,1.312,0,0,0,.952.314q.187,0,.4-.008t.349-.026V.017q-.34.051-.621.068T17.272.1a2.863,2.863,0,0,1-2.15-.731A3.18,3.18,0,0,1,14.416-2.907Zm8.33,2.822L19.618-8.942H21.76l2.533,7.548,2.091-7.548h2.057L25.908-.459a8.88,8.88,0,0,1-.952,2.193,3.973,3.973,0,0,1-1.343,1.318,6.436,6.436,0,0,1-2.006.705l-.442-1.7A4.611,4.611,0,0,0,22.9,1.309a2.957,2.957,0,0,0,.9-1.394ZM-51.451,23V10.641h2.21l4.284,8.84,4.216-8.84h2.193V23h-2.074V14.313l-3.638,7.5h-1.5l-3.621-7.378V23Zm20.978,0-.289-1.326A3.433,3.433,0,0,1-32,22.8a3.445,3.445,0,0,1-1.649.4,3.046,3.046,0,0,1-2.185-.765,2.721,2.721,0,0,1-.807-2.074,2.633,2.633,0,0,1,1.02-2.193,4.409,4.409,0,0,1,2.788-.8h1.683v-.425a1.483,1.483,0,0,0-.357-1.156,1.963,1.963,0,0,0-1.258-.306,9.035,9.035,0,0,0-3.06.629V14.5a7.788,7.788,0,0,1,1.547-.459,8.823,8.823,0,0,1,1.7-.17q3.485,0,3.485,3.06V23Zm-2.754-1.36a2.3,2.3,0,0,0,1.19-.331,2.615,2.615,0,0,0,.918-.927V18.7H-32.6q-2.057,0-2.057,1.5a1.455,1.455,0,0,0,.374,1.063A1.407,1.407,0,0,0-33.227,21.64ZM-26.784,23V14.058h1.377L-25.1,15.5A4.233,4.233,0,0,1-23.7,14.3a3.827,3.827,0,0,1,1.81-.425,2.981,2.981,0,0,1,2.363.926,3.958,3.958,0,0,1,.816,2.695V23h-2.074V17.56q0-1.972-1.683-1.972a2.207,2.207,0,0,0-1.334.442,2.708,2.708,0,0,0-.91,1.19V23Zm15.98,0-.289-1.326A3.433,3.433,0,0,1-12.334,22.8a3.445,3.445,0,0,1-1.649.4,3.046,3.046,0,0,1-2.184-.765,2.721,2.721,0,0,1-.808-2.074,2.633,2.633,0,0,1,1.02-2.193,4.409,4.409,0,0,1,2.788-.8h1.683v-.425a1.483,1.483,0,0,0-.357-1.156,1.963,1.963,0,0,0-1.258-.306,9.035,9.035,0,0,0-3.06.629V14.5a7.788,7.788,0,0,1,1.547-.459,8.823,8.823,0,0,1,1.7-.17q3.485,0,3.485,3.06V23Zm-2.754-1.36a2.3,2.3,0,0,0,1.19-.331,2.615,2.615,0,0,0,.918-.927V18.7h-1.479q-2.057,0-2.057,1.5a1.455,1.455,0,0,0,.374,1.063A1.407,1.407,0,0,0-13.558,21.64Zm6.307.374-.306-1.037L-6.146,18.9a2.649,2.649,0,0,1-.833-2.023,2.678,2.678,0,0,1,.994-2.21,4.329,4.329,0,0,1,2.78-.8,5.239,5.239,0,0,1,1.666.255l2.992-.017v1.037L.4,15.52a2.156,2.156,0,0,1,.544,1.513A2.462,2.462,0,0,1-.111,19.141a4.866,4.866,0,0,1-2.907.765,5.977,5.977,0,0,1-1.819-.255l-.7,1.037,4.182.544a3.81,3.81,0,0,1,2.134.79,2.2,2.2,0,0,1,.689,1.726,2.383,2.383,0,0,1-1.207,2.1,6.032,6.032,0,0,1-3.281.774,6.583,6.583,0,0,1-3.256-.655A2.061,2.061,0,0,1-7.4,24.088a2.453,2.453,0,0,1,1.02-1.938Zm2.193-5.134q0,1.564,2.04,1.564t2.04-1.564q0-1.547-2.04-1.547T-5.058,16.88Zm-.374,6.8q0,1.377,2.414,1.377a4.207,4.207,0,0,0,1.827-.323.993.993,0,0,0,.655-.9A.791.791,0,0,0-.8,23.178a2.054,2.054,0,0,0-.944-.314l-3.111-.476A1.751,1.751,0,0,0-5.432,23.68Zm15.555-1.1a5.455,5.455,0,0,1-1.36.459,8.157,8.157,0,0,1-1.7.17A4.475,4.475,0,0,1,3.689,22a4.873,4.873,0,0,1-1.164-3.519,4.823,4.823,0,0,1,1.113-3.409,4.07,4.07,0,0,1,3.137-1.2A3.594,3.594,0,0,1,9.6,14.933a4.4,4.4,0,0,1,.952,3.035v1.156H4.582a2.71,2.71,0,0,0,.773,1.853,2.806,2.806,0,0,0,1.913.578,6.615,6.615,0,0,0,1.411-.145,8.648,8.648,0,0,0,1.445-.467Zm-3.366-7.14q-2.04,0-2.193,2.227h4.08Q8.628,15.435,6.758,15.435ZM12.368,23V14.058h1.377l.306,1.394a3.78,3.78,0,0,1,1.292-1.165,3.4,3.4,0,0,1,1.649-.416,2.623,2.623,0,0,1,2.618,1.564A3.643,3.643,0,0,1,20.9,14.287a3.56,3.56,0,0,1,1.7-.416,2.747,2.747,0,0,1,2.236.926,4.107,4.107,0,0,1,.774,2.695V23H23.537V17.56q0-1.972-1.53-1.972A1.908,1.908,0,0,0,20.774,16a2.366,2.366,0,0,0-.757,1.164V23h-2.04V17.56q0-1.972-1.547-1.972a1.848,1.848,0,0,0-1.224.442,2.5,2.5,0,0,0-.765,1.19V23Zm22.644-.425a5.455,5.455,0,0,1-1.36.459,8.157,8.157,0,0,1-1.7.17A4.475,4.475,0,0,1,28.577,22a4.873,4.873,0,0,1-1.164-3.519,4.823,4.823,0,0,1,1.114-3.409,4.07,4.07,0,0,1,3.136-1.2,3.594,3.594,0,0,1,2.822,1.062,4.4,4.4,0,0,1,.952,3.035v1.156H29.47a2.71,2.71,0,0,0,.774,1.853,2.806,2.806,0,0,0,1.913.578,6.615,6.615,0,0,0,1.411-.145,8.648,8.648,0,0,0,1.445-.467Zm-3.366-7.14q-2.04,0-2.193,2.227h4.08Q33.516,15.435,31.646,15.435ZM37.256,23V14.058h1.377l.306,1.445a4.233,4.233,0,0,1,1.4-1.207,3.827,3.827,0,0,1,1.81-.425,2.981,2.981,0,0,1,2.363.926,3.958,3.958,0,0,1,.816,2.695V23H43.257V17.56q0-1.972-1.683-1.972a2.207,2.207,0,0,0-1.334.442,2.708,2.708,0,0,0-.91,1.19V23ZM48,20.093v-4.42H46.453V14.636l1.6-.612.7-2.482h1.326v2.516h1.921v1.615H50.074v4.4A1.39,1.39,0,0,0,50.4,21.1a1.312,1.312,0,0,0,.952.315q.187,0,.4-.009t.348-.025v1.632q-.34.051-.621.068t-.62.017a2.863,2.863,0,0,1-2.151-.731A3.18,3.18,0,0,1,48,20.093Z" transform="translate(5254 1439)" fill="#fff"/><g transform="matrix(1, 0, 0, 1, 4486, 1079)" filter="url(#e)"><path d="M7,0H148a7,7,0,0,1,7,7V64a7,7,0,0,1-7,7H7a7,7,0,0,1-7-7V7A7,7,0,0,1,7,0Z" transform="translate(1182 331)" fill="#0090be"/></g><path d="M-44.838,0V-12.359h2.125v5.44l4.9-5.44H-35.3L-40.452-6.8-34.876,0h-2.516l-4.4-5.423h-.918V0Zm11.22,0V-8.942h1.377l.306,1.445a4.233,4.233,0,0,1,1.4-1.207,3.827,3.827,0,0,1,1.81-.425,2.981,2.981,0,0,1,2.363.926,3.958,3.958,0,0,1,.816,2.695V0h-2.074V-5.44q0-1.972-1.683-1.972a2.207,2.207,0,0,0-1.334.442,2.708,2.708,0,0,0-.91,1.19V0Zm14.229.187a4.178,4.178,0,0,1-3.2-1.224,4.827,4.827,0,0,1-1.147-3.434,4.827,4.827,0,0,1,1.147-3.434,4.178,4.178,0,0,1,3.2-1.224,4.173,4.173,0,0,1,3.213,1.224,4.85,4.85,0,0,1,1.139,3.434,4.85,4.85,0,0,1-1.139,3.434A4.173,4.173,0,0,1-19.389.187Zm0-1.615q2.261,0,2.261-3.043t-2.261-3.043q-2.261,0-2.261,3.043T-19.389-1.428ZM-11.7,0l-2.584-8.942H-12.2l1.547,5.865,1.7-5.61h1.683l1.7,5.712,1.6-5.967h2.023L-4.514,0H-6.18L-8.118-6.316-10.039,0ZM-.518,0V-11.254l-.9-.663v-.85H1.556V0ZM11.025-.425a5.455,5.455,0,0,1-1.36.459,8.157,8.157,0,0,1-1.7.17A4.475,4.475,0,0,1,4.59-1,4.873,4.873,0,0,1,3.426-4.522,4.823,4.823,0,0,1,4.539-7.931a4.07,4.07,0,0,1,3.137-1.2A3.594,3.594,0,0,1,10.5-8.067a4.4,4.4,0,0,1,.952,3.035v1.156H5.483a2.71,2.71,0,0,0,.773,1.853,2.806,2.806,0,0,0,1.913.578A6.615,6.615,0,0,0,9.58-1.59a8.648,8.648,0,0,0,1.445-.468ZM7.659-7.565q-2.04,0-2.193,2.227h4.08Q9.529-7.565,7.659-7.565ZM19.916,0,19.61-1.377A3.722,3.722,0,0,1,18.326-.221,3.368,3.368,0,0,1,16.7.187a3.377,3.377,0,0,1-2.771-1.233,5.313,5.313,0,0,1-1-3.442,5.272,5.272,0,0,1,.995-3.426A3.391,3.391,0,0,1,16.7-9.129a3.523,3.523,0,0,1,2.516,1v-4.641h2.074V0Zm-4.9-4.471a3.876,3.876,0,0,0,.536,2.219,1.757,1.757,0,0,0,1.539.773,2.289,2.289,0,0,0,1.215-.348,2.786,2.786,0,0,0,.926-.926V-6.477a2.689,2.689,0,0,0-2.142-1,1.757,1.757,0,0,0-1.539.774A3.912,3.912,0,0,0,15.02-4.471ZM23.537-.986l-.306-1.037L24.642-4.1a2.649,2.649,0,0,1-.833-2.023A2.678,2.678,0,0,1,24.8-8.33a4.329,4.329,0,0,1,2.78-.8,5.239,5.239,0,0,1,1.666.255l2.992-.017v1.037l-1.054.374a2.156,2.156,0,0,1,.544,1.513,2.462,2.462,0,0,1-1.054,2.108,4.866,4.866,0,0,1-2.907.765,5.977,5.977,0,0,1-1.819-.255l-.7,1.037,4.182.544a3.81,3.81,0,0,1,2.134.79A2.2,2.2,0,0,1,32.258.748a2.383,2.383,0,0,1-1.207,2.1,6.032,6.032,0,0,1-3.281.774,6.583,6.583,0,0,1-3.256-.655,2.061,2.061,0,0,1-1.13-1.878A2.453,2.453,0,0,1,24.4-.85ZM25.73-6.12q0,1.564,2.04,1.564T29.81-6.12q0-1.547-2.04-1.547T25.73-6.12ZM25.356.68q0,1.377,2.414,1.377A4.207,4.207,0,0,0,29.6,1.734a.993.993,0,0,0,.655-.9.791.791,0,0,0-.264-.655,2.054,2.054,0,0,0-.944-.315L25.934-.612A1.751,1.751,0,0,0,25.356.68ZM40.911-.425a5.455,5.455,0,0,1-1.36.459,8.157,8.157,0,0,1-1.7.17A4.475,4.475,0,0,1,34.476-1a4.873,4.873,0,0,1-1.165-3.519,4.823,4.823,0,0,1,1.113-3.409,4.07,4.07,0,0,1,3.137-1.2,3.594,3.594,0,0,1,2.822,1.062,4.4,4.4,0,0,1,.952,3.035v1.156H35.369a2.71,2.71,0,0,0,.774,1.853,2.806,2.806,0,0,0,1.912.578,6.615,6.615,0,0,0,1.411-.145,8.649,8.649,0,0,0,1.445-.468Zm-3.366-7.14q-2.04,0-2.193,2.227h4.08Q39.415-7.565,37.545-7.565ZM-51.451,23V10.641h2.21l4.284,8.84,4.216-8.84h2.193V23h-2.074V14.313l-3.638,7.5h-1.5l-3.621-7.378V23Zm20.978,0-.289-1.326A3.433,3.433,0,0,1-32,22.8a3.445,3.445,0,0,1-1.649.4,3.046,3.046,0,0,1-2.185-.765,2.721,2.721,0,0,1-.807-2.074,2.633,2.633,0,0,1,1.02-2.193,4.409,4.409,0,0,1,2.788-.8h1.683v-.425a1.483,1.483,0,0,0-.357-1.156,1.963,1.963,0,0,0-1.258-.306,9.035,9.035,0,0,0-3.06.629V14.5a7.788,7.788,0,0,1,1.547-.459,8.823,8.823,0,0,1,1.7-.17q3.485,0,3.485,3.06V23Zm-2.754-1.36a2.3,2.3,0,0,0,1.19-.331,2.615,2.615,0,0,0,.918-.927V18.7H-32.6q-2.057,0-2.057,1.5a1.455,1.455,0,0,0,.374,1.063A1.407,1.407,0,0,0-33.227,21.64ZM-26.784,23V14.058h1.377L-25.1,15.5A4.233,4.233,0,0,1-23.7,14.3a3.827,3.827,0,0,1,1.81-.425,2.981,2.981,0,0,1,2.363.926,3.958,3.958,0,0,1,.816,2.695V23h-2.074V17.56q0-1.972-1.683-1.972a2.207,2.207,0,0,0-1.334.442,2.708,2.708,0,0,0-.91,1.19V23Zm15.98,0-.289-1.326A3.433,3.433,0,0,1-12.334,22.8a3.445,3.445,0,0,1-1.649.4,3.046,3.046,0,0,1-2.184-.765,2.721,2.721,0,0,1-.808-2.074,2.633,2.633,0,0,1,1.02-2.193,4.409,4.409,0,0,1,2.788-.8h1.683v-.425a1.483,1.483,0,0,0-.357-1.156,1.963,1.963,0,0,0-1.258-.306,9.035,9.035,0,0,0-3.06.629V14.5a7.788,7.788,0,0,1,1.547-.459,8.823,8.823,0,0,1,1.7-.17q3.485,0,3.485,3.06V23Zm-2.754-1.36a2.3,2.3,0,0,0,1.19-.331,2.615,2.615,0,0,0,.918-.927V18.7h-1.479q-2.057,0-2.057,1.5a1.455,1.455,0,0,0,.374,1.063A1.407,1.407,0,0,0-13.558,21.64Zm6.307.374-.306-1.037L-6.146,18.9a2.649,2.649,0,0,1-.833-2.023,2.678,2.678,0,0,1,.994-2.21,4.329,4.329,0,0,1,2.78-.8,5.239,5.239,0,0,1,1.666.255l2.992-.017v1.037L.4,15.52a2.156,2.156,0,0,1,.544,1.513A2.462,2.462,0,0,1-.111,19.141a4.866,4.866,0,0,1-2.907.765,5.977,5.977,0,0,1-1.819-.255l-.7,1.037,4.182.544a3.81,3.81,0,0,1,2.134.79,2.2,2.2,0,0,1,.689,1.726,2.383,2.383,0,0,1-1.207,2.1,6.032,6.032,0,0,1-3.281.774,6.583,6.583,0,0,1-3.256-.655A2.061,2.061,0,0,1-7.4,24.088a2.453,2.453,0,0,1,1.02-1.938Zm2.193-5.134q0,1.564,2.04,1.564t2.04-1.564q0-1.547-2.04-1.547T-5.058,16.88Zm-.374,6.8q0,1.377,2.414,1.377a4.207,4.207,0,0,0,1.827-.323.993.993,0,0,0,.655-.9A.791.791,0,0,0-.8,23.178a2.054,2.054,0,0,0-.944-.314l-3.111-.476A1.751,1.751,0,0,0-5.432,23.68Zm15.555-1.1a5.455,5.455,0,0,1-1.36.459,8.157,8.157,0,0,1-1.7.17A4.475,4.475,0,0,1,3.689,22a4.873,4.873,0,0,1-1.164-3.519,4.823,4.823,0,0,1,1.113-3.409,4.07,4.07,0,0,1,3.137-1.2A3.594,3.594,0,0,1,9.6,14.933a4.4,4.4,0,0,1,.952,3.035v1.156H4.582a2.71,2.71,0,0,0,.773,1.853,2.806,2.806,0,0,0,1.913.578,6.615,6.615,0,0,0,1.411-.145,8.648,8.648,0,0,0,1.445-.467Zm-3.366-7.14q-2.04,0-2.193,2.227h4.08Q8.628,15.435,6.758,15.435ZM12.368,23V14.058h1.377l.306,1.394a3.78,3.78,0,0,1,1.292-1.165,3.4,3.4,0,0,1,1.649-.416,2.623,2.623,0,0,1,2.618,1.564A3.643,3.643,0,0,1,20.9,14.287a3.56,3.56,0,0,1,1.7-.416,2.747,2.747,0,0,1,2.236.926,4.107,4.107,0,0,1,.774,2.695V23H23.537V17.56q0-1.972-1.53-1.972A1.908,1.908,0,0,0,20.774,16a2.366,2.366,0,0,0-.757,1.164V23h-2.04V17.56q0-1.972-1.547-1.972a1.848,1.848,0,0,0-1.224.442,2.5,2.5,0,0,0-.765,1.19V23Zm22.644-.425a5.455,5.455,0,0,1-1.36.459,8.157,8.157,0,0,1-1.7.17A4.475,4.475,0,0,1,28.577,22a4.873,4.873,0,0,1-1.164-3.519,4.823,4.823,0,0,1,1.114-3.409,4.07,4.07,0,0,1,3.136-1.2,3.594,3.594,0,0,1,2.822,1.062,4.4,4.4,0,0,1,.952,3.035v1.156H29.47a2.71,2.71,0,0,0,.774,1.853,2.806,2.806,0,0,0,1.913.578,6.615,6.615,0,0,0,1.411-.145,8.648,8.648,0,0,0,1.445-.467Zm-3.366-7.14q-2.04,0-2.193,2.227h4.08Q33.516,15.435,31.646,15.435ZM37.256,23V14.058h1.377l.306,1.445a4.233,4.233,0,0,1,1.4-1.207,3.827,3.827,0,0,1,1.81-.425,2.981,2.981,0,0,1,2.363.926,3.958,3.958,0,0,1,.816,2.695V23H43.257V17.56q0-1.972-1.683-1.972a2.207,2.207,0,0,0-1.334.442,2.708,2.708,0,0,0-.91,1.19V23ZM48,20.093v-4.42H46.453V14.636l1.6-.612.7-2.482h1.326v2.516h1.921v1.615H50.074v4.4A1.39,1.39,0,0,0,50.4,21.1a1.312,1.312,0,0,0,.952.315q.187,0,.4-.009t.348-.025v1.632q-.34.051-.621.068t-.62.017a2.863,2.863,0,0,1-2.151-.731A3.18,3.18,0,0,1,48,20.093Z" transform="translate(5747 1439)" fill="#fff"/></g></svg>